<svg version="1.2" xmlns="http://www.w3.org/2000/svg" viewBox="0 0 226 677" width="226" height="677">
	<title>321353356351 2</title>
	<style>
		.s0 { fill: #66a400 } 
		.s1 { fill: #5a6008 } 
	</style>
	<g id="321353356351 2">
		<g id="&lt;Group&gt;">
			<g id="-e- Stage 3">
				<g id="&lt;Group&gt;">
					<path id="&lt;Path&gt;" class="s0" d="m5.6 103.9c0 0-11.2 28.1 0 52.2 11.3 24.1 44.9 23 44.9 23 0 0-1.7-20.8-8.4-37.6-6.7-16.8-26.9-28.6-36.5-37.6z"/>
				</g>
				<g id="&lt;Group&gt;">
					<path id="&lt;Path&gt;" class="s0" d="m121.4 0.8c0 0-21.3 18.5-28.1 38.2-6.7 19.6-0.5 39.8 18 54.4 0 0 28-19.1 25.8-48.8-2.3-29.7-15.7-43.8-15.7-43.8z"/>
				</g>
				<g id="&lt;Group&gt;">
					<path id="&lt;Path&gt;" class="s0" d="m219.5 61.9c0 0-32.7 15.4-39.4 43.5-6.7 28.1 9.6 45.4 9.6 45.4 0 0 25.9-0.8 30.8-24.1 7.9-37.6-1-64.8-1-64.8z"/>
				</g>
				<path id="&lt;Path&gt;" class="s1" d="m206.3 618.2c-15-20-18.6-46.9-11.3-70.6 0.3-2.3 1.7-3.6 3.4-5.1 39.4-39.4-16.8-76.2-41.8-103.4-29.7-38.1-37.8-83.6-24.7-130.1 3.9-15.7 9.7-31.7 12.3-47.8 20.7-14.5 36.3-37 40-62.3 1.3-9.7 2.9-20.1 4.8-29.7 5.6-27.6 12.9-55.1 20.5-82.2-11.3 28.2-21 57.2-27.9 86.8-5.8 32.5-9.4 53.6-35.8 76.6 8.8-87.2-51.9-110.8-26.9-228.8-35.7 119.1 30.5 148 12.1 237.1-7.9-25.1-27.5-44.9-50.6-56.7-27.6-17.7-47.3-45.2-66-71.6 15.3 29.6 33.9 59 61.6 78.6 6.9 4.1 13.8 8.5 19.8 13.8 16 14.1 37.3 44.6 26.5 65.9-1.7 5.1-3.6 11.4-5 16.5-7.2 26.3-11.2 54.6-4.8 81.6 7.1 26.2 19.3 53.6 39.6 71.9 2.7 14.6 3.1 29.9-1.2 44.2-13.9 8.6-30.5 6.7-45.9 4.1-20.2-0.9-37.4 14.1-46.7 30.8 41.5-41.6 48.3-9.6 87.6-22.8-9.5 19-29 28.6-46.7 38.5-18.1 11.6-24 35.8-16.4 55.3-7.1-34.8 11.9-49 41.2-60.8 28.6-14.5 44-47.1 40.1-78.5 41.8 36.9 47.1 44.9 6.4 85.4-29.8 31.5-64.4 77.7-38.7 121.6-20.8-47.1 19.1-88.1 50.8-118.4-5.8 32.9 13.5 66.1 42.8 80.8-7.2-6.3-13.7-13.2-19.1-20.7z"/>
			</g>
		</g>
	</g>
</svg>