<svg version="1.2" xmlns="http://www.w3.org/2000/svg" viewBox="0 0 1184 1748" width="1184" height="1748">
	<title>321353356351 2</title>
	<style>
		.s0 { fill: #66a400 } 
		.s1 { fill: #609100 } 
		.s2 { fill: #773d12 } 
		.s3 { fill: #66300c } 
		.s4 { fill: #7ab812 } 
		.s5 { fill: #ed1c24 } 
		.s6 { fill: #d81322 } 
		.s7 { fill: #f74350 } 
		.s8 { fill: #89491d } 
	</style>
	<g id="321353356351 2">
		<g id="&lt;Group&gt;">
			<g id="-e- Stage 8">
				<g id="&lt;Group&gt;">
					<path id="&lt;Path&gt;" class="s0" d="m1182.9 630.2c-3.1 72.8-83.3 88.2-83.3 88.2q0 0 0 0c0.7 1.1 36.6 54.4-4.6 111.7-41.6 58-124.9 20.8-124.9 20.8 0 0 4.6 64.2-47.8 70-52.4 5.7-75.6-47.5-75.6-47.5 0 0-27.7 53.2-50.9 0 0 0-60.1 78.9-109.4-10.3 0 0-38.6 85.1-106.4 51.9 0 0-61.7 88.6-134.2 44.7-72.5-43.9-64.8-102.3-64.8-102.3 0 0-13.8 31.7-33.9 5.7 0 0-10.8 98.9-112.6 37.3 0 0-83.2 25.7-89.4-57.3 0 0-104.9 17.2-63.2-104.6 0 0-60.2-50.7-3.1-84.7 0 0-86.4-8-49.4-98.1 0 0-81.7-65.8 29.3-134.3 0 0-63.2-86.9 26.3-122.4 0 0-3.1-69.4 81.7-54 0 0 4.6-38.5 38.5-38.5 0 0-29.3-94.1 71-111.1 0 0 10.8-60.1 70.9-38.5 0 0 58-94.1 106.1 4.6 0 0 48.1-50.9 83.6 4.6 0 0 41.6-74 101.8-64.7 60.1 9.2 78.6 81.7 78.6 81.7 0 0 57-44.7 69.4 23.1 0 0 109.5-57 117.2 74.1 0 0 74-21.6 55.5 81.7 0 0 57-20.5 91 12.9 33.9 33.3 15.4 99.8 15.4 99.8 0 0 57-4.8 41.6 61.5 0 0 81.8 27.8 23.2 109.5 0 0 55.5 11.7 52.4 84.5z"/>
				</g>
				<path id="&lt;Path&gt;" class="s1" d="m1095 830.1c-41.6 58-124.9 20.8-124.9 20.8 0 0 4.6 64.2-47.8 70-52.4 5.7-75.6-47.5-75.6-47.5 0 0-27.7 53.2-50.9 0 0 0-60.1 78.9-109.4-10.3 0 0-38.6 85.1-106.4 51.9 0 0-61.7 88.6-134.2 44.7-72.5-43.9-64.8-102.3-64.8-102.3 0 0-13.8 31.7-33.9 5.7 0 0-10.8 98.9-112.6 37.3 0 0-83.2 25.7-89.4-57.3 0 0-104.9 17.2-63.2-104.6 0 0 4.8 122 128.2 60.9 0 0 3.1 64.9 70.4 17.1 0 0 63.7 28.4 75-71.2 0 0 94.9 156 189 128.1 94.1-27.8 127.6-106.4 127.6-106.4 0 0 30.3 103.7 139.6-6.4 0 0 15.4 82.1 101.1 19.1 0 0 82.6 57.2 140.7 29.3 60.3-29 46.4-89.3 46.1-90.6 0.7 1.1 36.6 54.4-4.6 111.7z"/>
				<path id="&lt;Path&gt;" class="s2" d="m453.2 1383.1c0 0 64.6-120.2 69.1-226.4 4.4-106.2 6.6-199.8 22.2-283.3 15.6-83.5 33.9-184 33.9-266 0-72-17.1-332.5-17.1-332.5 0 0 37 150.6 50.3 244.5 13.4 93.9 24.7 222.3 26.9 326.2 2.3 103.8 0.9 169.4 23.2 272.2 22.3 102.9 24.7 265.3 24.7 265.3z"/>
				<path id="&lt;Path&gt;" class="s2" d="m580 873.4c0 0-62.3-41.1-126.8-100.4-64.5-59.2-90.7-162.5-93.8-227.3 0 0-1.5 134.2 38.6 205.1 40.1 70.9 129.5 147.9 154.2 247.5z"/>
				<path id="&lt;Path&gt;" class="s2" d="m600 790.9c0 0 57.1-60.5 118.7-87.3 61.7-26.8 92.6-200.8 92.6-200.8 0 0 9.2 164.7-58.6 215.6-67.9 50.9-134.2 157-134.2 157z"/>
				<path id="&lt;Path&gt;" class="s2" d="m623.1 980.6c0 0 47.8-79.2 118.8-117.5 70.9-38.3 137.2-130.8 137.2-130.8 0 0-32.4 77.5-115.6 154.4-83.3 76.9-131.1 181.8-131.1 181.8z"/>
				<path id="&lt;Path&gt;" class="s2" d="m453.2 804.4c0 0-76.8 54.4-140-37.4 0 0 33.9 114.4 169.6 76.1z"/>
				<path id="&lt;Path&gt;" class="s2" d="m385.7 690.9c0 0-47.8-13.9-81.8-37.1-33.9-23.3-49.3-72.6-49.3-72.6 0 0 13.9 83.2 58.6 107.9 44.7 24.7 100.2 63.3 100.2 63.3z"/>
				<path id="&lt;Path&gt;" class="s2" d="m606.2 545.7c0 0 46.2-34.8 57-92.2 10.8-57.4 42.6-85.6 42.6-85.6 0 0-28.7 73.6-30.2 110.3-1.6 36.7-61.7 126.1-61.7 126.1z"/>
				<path id="&lt;Path&gt;" class="s3" d="m836.3 804.2c-17.9 24.8-41.9 53.7-73.1 82.5-65.1 60.2-108.6 137.5-124.4 168.3l4.2-63.5c0 0 38.6-53.5 91.1-97.6 52.5-44.1 99.9-94.5 99.9-94.5 0 0 0.9 1.8 2.3 4.8z"/>
				<path id="&lt;Path&gt;" class="s2" d="m590.7 703.6c0 0-33.9-24.4-64.7-65.7-30.9-41.3-43.2-145.3-43.2-145.3 0 0 1.5 122.5 29.3 174.2 27.8 51.6 67.9 124.1 67.9 124.1z"/>
				<path id="&lt;Path&gt;" class="s2" d="m783.5 641.7c0 0 55.5-17.3 95.6-60.5 0 0-59.5 82-103.3 98z"/>
				<path id="&lt;Path&gt;" class="s2" d="m695.6 545.7c0 0-17 67.2 0 92.2 17 25 41.6 65.7 41.6 65.7l-50.8 28.7c0 0-23.2-70.8-21.6-104 1.5-33.2 30.8-82.6 30.8-82.6z"/>
				<g id="&lt;Group&gt;">
					<path id="&lt;Path&gt;" class="s0" d="m172 666.8c0 0 45.9 33.5 82.6-5.6 0 0 75 25.4 44.2-56.9 0 0 41.1-4.8 43.8-52.8 0 0-11.3 64 70.8 64.3l-6.3-108.8c0 0-149.4-23.3-164.5-17.8-15.1 5.5-148.7 55.5-153.5 75.4-4.8 19.8 54.8 133.6 56.2 137 1.3 3.5 45.4 82.9 51.6 89.3 6.1 6.3 83.6 25.6 83.6 25.6 0 0 117.5 42 75-71.2l-82.8-23.8z"/>
				</g>
				<g id="&lt;Group&gt;">
					<path id="&lt;Path&gt;" class="s0" d="m438.6 492.6c0 0 15.8 46.6 61 34.3 45.2-12.4 33.6-125.4 33.6-125.4 0 0 65.8 27.4 66.8-55.6 0 0 12 26.8 39.4 17.2 0 0-2.1 96.6 87 62.3l6.9-118.5-211.1-56.9c0 0-95.3 58.9-100.7 78.1-5.5 19.2 17.1 164.5 17.1 164.5z"/>
				</g>
				<g id="&lt;Group&gt;">
					<path id="&lt;Path&gt;" class="s0" d="m664.7 557c0 0 6.2 38.4 55.6 19.2l52.7-57.6c0 0 19.9 58.3 87.1 6.2 0 0-62.4 104.9 52.8 124.1l-113 123.1c0 0 18.3 103.4 112.9 7.7l59-104.8c0 0-22.6-106.2-38.4-129.2-15.7-22.9-97.5-59-106-59.5-8.4-0.4-90.2 2.1-90.2 2.1z"/>
				</g>
				<path id="&lt;Path&gt;" class="s2" d="m959 1578.1c-36.4-6.6-47.5-20.2-87.1-5.4-12.5-20.5-28.8-31.7-53.4-30-9.3-26.7-25.1-51.8-48.2-68.9 24.6-9.6 49 9.1 64.7 26.8-15.6-23.8-44.9-46.8-74.4-33.4-18.9-10.3-39.8-17.4-55.5-32.9 27.8-5.8 57.4-11.7 85.3-5 16.7 4.7 28 18.9 37.3 32.9 9.6 14.1 19.6 32.5 38.5 35.1 10.7 21.5 28.7 39.1 49.8 50.4-19.1-11.9-35-29.2-44.4-49.8 24.1 1.3 47.8-5.2 70.6-12.3-25.8 5.6-54 12.7-79.8 4.8-13.1-5.6-19.1-19.7-26.1-31.4 4.3-2 8.8-3.7 13.4-5.1 1 0.3 2.4 0 3.1-0.9 12.4-3.4 25.4-4.5 38.2-3.3-12.3-2.9-25.3-3.6-37.9-2.1-1.7-16.3 8.1-31.9 22.6-39-16.6 5.8-28.4 22.1-28.3 39.8-5.2 0.9-10.2 2.1-15.2 3.7-40.4-77.8-126.9 0.7-148.1-101.9l-19.3 24.4c-1.3-3.7-2.6-7.4-3.6-11.1-1.3-5-5.3-8.5-9.9-9.6l-3-15.9-152.6 16.2-6.8 7.4c-5.5-5.2-14.3-4.8-19.3 0.9-20.2 22.8-43.4 43-69.5 58.8-7.2-1.6-14.5-2.8-21.8-3.6-5.7-9.7-14.8-17.9-25.9-20.7 9.2 3.7 16.4 11.4 20.6 20.2-11.2-0.8-22.6-0.4-33.7 1.6 17.3-0.6 34.7 2.7 51 8.2-18.4 10.5-39 18.1-59.2 24.5-16.3-3.5-32.7-5.8-49.3-6.8-21.1-12.4-43.9-24.3-68.6-26.6 18.8 4.3 35.2 15.1 50.5 26.2-18.2 0.3-36.9 3-52.8 12.3-30 12.8-64.5 4.2-93.8-6.9 22.6 10.8 47.5 18.7 72.8 18-13.6 16.2-25.2 34.3-32.8 54.1 10.1-20.7 24.7-39.2 41.4-54.9 8-0.9 15.7-4 23-7.1 26.9-8.9 56.1-4.1 83.2 1.2-33.4 13.2-70.4 33.5-80.4 70.8-25.1 7.3-48.8 25-57.2 50.5 9.8-22.6 32.1-37.4 55.5-42.9-3.2 17.5-0.4 35.6 4 52.6-14 17.2-24.1 37.6-29.6 59.1 6.5-19.8 17.2-38.2 31.1-53.8 8.2 28 20.6 54.6 35.1 79.8-23.3-50.7-60.4-129.9-8.6-174.2 3.5 18.5 7.9 37 16.6 53.8 9.4 16.5 15.2 34.9 18.2 53.7-1.2-20.6-6.5-40.9-15-59.6 20.3 3.5 42.4 12.3 52.4 31.5-9.3-21.2-32.6-31.8-54.1-36.6-5-16.1-7.3-33.1-8.5-49.9 24-15.6 52.1-23.2 79.8-30.7-21.5 27.3-27.6 44.1-2.9 72.3-19.5-27.3-15.6-41.9 6.7-65.2 10.1-15.2 29.3-15.7 44.6-23.7 18.9-8.5 37-18.8 53.8-31 62.8-30.7 91.2-6 59 37.3-19 4.2-37.9 8.5-56.1 15.6-20.3 9.8-41.6 17-63.6 22.2 17.9-3 35.8-6.6 53-12.5-6.4 13.2-16.8 24.6-29.9 31.2 15.7-6.1 28.5-18.6 36.1-33.6 16.6-6.1 34.4-8.7 51.9-11.4-12.4 16.6-30.6 26.1-47.1 37.9-14.1 10.5-27.2 23.1-36.3 38.3-20.9 1.7-43.1 12-51.4 32.2 9.7-15.6 28.3-22.6 46.1-22.2-4.7 10.1-7.5 20.7-8.9 31.5-16.8 3.5-36.4 8.2-46.6 23.2 11.3-12.9 29.8-15.1 45.9-16.5-1.1 11.9-0.2 23.7 0 35.6-16.9 2-33.7 6-49 13.6-19.6-8.6-42.5-7.7-62.4-0.5 18.7-5.2 39.5-4.9 57.3 3.3-10.4 5.6-17.9 14.6-24.9 23.8-11.9 14.4-25.2 27.7-39.9 39.4 50.2-35 48-67.9 118.6-72.5-3.7 51.5-45 91.7-88.6 114.3 34.4-15.5 66.4-40.1 84.6-73.8 9.9 17.9 17.9 36.8 24.1 56.3-5.1-21.1-12.1-41.7-21.5-61.3 24.9-53.4-7.2-96.8 50.7-142.4 2 10.6 4.8 21.2 8.6 31.3-9.3 19.9-12.6 42.1-13 63.9 1.8-20 6.1-40.2 15.3-58.3 3.4 9.6 9.7 17.8 14.3 26.7 9.4 24.7 4.5 52.5-0.9 77.7 26.5-89.4-7.6-74.1-14.9-148.2 11.4-8.2 24.7-13.6 35.9-22.2 4.2 21.5 11 44.2 27.1 60-14.7-18.7-18.2-43.5-19.1-66.6 18.6-16.3 32.7-37.1 43.7-58.9 28.3 25 33.5 72.2 1 96 38.2-23.6 33-76.8 3.6-105.5q0.8-1.7 1.5-3.4c2.6-8.4 53.1-31.4 74.4 16.6-7.7 15.7-14.5 32.5-16.3 50 4.2-14.9 12.2-28.4 21-41 7.9 15.4 15 31 20.4 47.3-16.3 8.8-32.1 20.2-42.2 36 12.3-12.7 28.6-20.3 45.2-25.5 3.6 13.7 5.2 29-2.5 41.6-12.6 3.4-25.2 6.9-37.7 10.7-13.7-9.1-30.5-12.9-46.8-11.7 14.3 0.6 28.5 5.2 40 13.7-28.9 8.4-55.3 23.4-81.4 37.9 36.9-18.5 75.8-31.8 116.6-38.2-27.5 30.4-72.1 44.7-91.2 82.8-21.9 13.5-40 34.6-46.4 59.8 7.2-22.6 24-41.1 44.1-53.2-1.5 6.3-0.6 13.1 1.5 19.1 2.3 27.8 5.4 55.9 13 82.8-4.4-22.7-5.3-45.8-5.7-68.9 23.3 31.1 58.2 50.9 91.9 68.9-17.6-10.1-34.5-21.5-50.3-34.2 26.4-7.2 55.1-6.5 80.8 3-26.4-11-56.4-12.8-84.1-5.7-56.6-47.3-51.8-72.7 10-109.8 6.4 27.7 24 53.2 49.2 66.8-14.2-10.1-25.4-24.1-32-40.2 14.5-0.9 29.6 0.7 42.9 7.3-13.3-8.3-29.2-11.4-44.7-11.8-3.3-9-5.4-18.5-6-28 54.7-33.6 72-58.9 50.3-122.5 15.2 4.7 26.9 17.2 33.2 31.7-4.3-19.6-18.3-36.9-37.5-43.7-5.4-14.6-11.6-28.7-18.3-42.6 6.7-2 14.8-1.4 23 6.5l-0.2-0.7c17.9 22.7 41.7 40.9 68.9 51 4.8 53.5-20.4 56.5-12.8 88.8-15.5 26.2-20.6 57.5-18.2 87.5-0.7-19.1 1.5-38.6 7.6-56.7 12.8 19.4 22.6 41.8 23.6 65.2-0.6-23.9-10.3-46.8-23.1-66.7 3-8.6 6.6-16.9 11.3-24.7 4 12.4 10.9 23.6 19.2 33.5-11.7-18.2-22.9-43.5-11-63.9 2-3.2 4.5-6.9 6.1-10.3 22.1 16.1 39.3 38.4 50.6 63.3-9.6-26.8-25.8-51.4-47.6-69.7 5.4-12.8 8.1-26.6 9.1-40.5 53 25.9 74.5 90.3 73.8 146.1-6.2 0.6-12.4 1.9-18.3 3.9-12.6-6.2-27.3-7.5-41-5.3 12.5-0.9 25.5 1 36.6 6.9-49.1 16.8-41.9 72.7-77.2 101.8 42.4-34.1 29.1-95.2 99.6-101.3-2.2 17.1 2.5 34.5 11.1 49.2-9.4 17.7-11.8 38.8-7.4 58.3-3.1-18.6 0.1-38.4 9.5-54.8 10.9 17.5 25.8 32.5 42.3 44.8-24.2-20.9-47.4-48.6-49.8-81.7 3.1-31.9 4.1-64.4-5.7-95.5 12.3-1.1 25.7 1.8 34.5 11-8.8 13.6-11.5 31-6.1 46.4-3.2-14.6 0.6-30.4 9.9-42.1 10.4 12.4 20.9 25 34.3 34.5-2.6 26.2 4.3 54 21.6 74.3-16.2-20.2-22.3-47.3-19.4-72.8 11.9 8.1 26.2 12.8 40.6 12.6-26-1.2-46.8-19.2-61.6-39.3 12.2-5.2 25.8-8.2 39.1-7 3.5 0.3 7.3 1.2 10.7 2.1 20.6 6.1 42.1 8.4 63.4 9.6q-15-1.5-29.8-4.2z"/>
				<path id="&lt;Path&gt;" class="s4" d="m1130.5 545.7c-11.3-77.2-65.2-24.9-65.2-24.9 10.7-88.3-67.3-47.8-67.3-47.8 45.8-209.6-118.9-162.2-118.9-162.2 18.8-108.6-73.9-73.4-73.9-73.4-9.2-126.9-104.2-67.3-104.2-67.3-93.6-148.4-177.3 6.1-177.3 6.1-88.7-78-103.1 41.3-103.1 41.3-52.6-39.7-56.4 32.5-56.4 32.5 0 0-51.6-43.2-109.6-11-58.1 32.1-29.2 164.8-29.2 164.8 0 0-64.2-51.6-120.8-11.6-56.6 40 0 153.5 0 153.5-70.4 39.1-25.8 108.1-25.8 108.1 0 0-86.4-8-49.4-98.1 0 0-81.7-65.8 29.3-134.3 0 0-63.2-86.9 26.3-122.4 0 0-3.1-69.4 81.7-54 0 0 4.6-38.5 38.5-38.5 0 0-29.3-94.1 71-111.1 0 0 10.8-60.1 70.9-38.5 0 0 58-94.1 106.1 4.6 0 0 48.1-50.9 83.6 4.6 0 0 41.6-74 101.8-64.7 60.1 9.2 78.6 81.7 78.6 81.7 0 0 57-44.7 69.4 23.1 0 0 109.5-57 117.2 74.1 0 0 74-21.6 55.5 81.7 0 0 57-20.5 91 12.9 33.9 33.3 15.4 99.8 15.4 99.8 0 0 57-4.8 41.6 61.5 0 0 81.8 27.8 23.2 109.5z"/>
				<path id="&lt;Path&gt;" class="s4" d="m171.1 465.4c0 0 7.7-59.3 45.1-75.9 37.5-16.7 85 18.5 85 18.5 0 0 9.9-60.4 67.3-13.8 0 0-52.8-20.6-64.3 34.4 0 0-81.1-68-133.1 36.8z"/>
				<path id="&lt;Path&gt;" class="s4" d="m341.9 278c0 0 0.9-29.1 17.5-36.8 16.7-7.6 43.5 8.8 43.5 8.8 0 0-4.2-36.3 10.5-40.9 14.7-4.6 49.9 21.4 49.9 21.4 0 0-57.1-32.8-49.9 36.8 0 0-46.1-40.6-71.5 10.7z"/>
				<path id="&lt;Path&gt;" class="s4" d="m609.4 183.9c0 0 53.7-44.4 96.4-26 42.8 18.3 37.5 81.8 37.5 81.8 0 0 57.3-27.5 57.3 56.6 0 0-19.1-60.4-73.4-35.9 0 0 22.2-119.4-117.8-76.5z"/>
				<path id="&lt;Path&gt;" class="s4" d="m945.2 465.4c0 0 35.2-19.9 62.7-4.6 27.5 15.3 16.8 68.2 16.8 68.2 0 0-3-69-79.5-63.6z"/>
				<path id="&lt;Path&gt;" class="s4" d="m109.7 602.5c0 0-24-24.9-14.3-56.8 9.7-31.9 61.2-35 61.2-35 0 0-64.8 22-46.9 91.8z"/>
				<path id="&lt;Path&gt;" class="s1" d="m254.6 661.2c0 0 35.3 13.5 49.3-7.4 14.1-20.9 0-51.3 0-51.3 0 0 28.2 15.4 33.4-27.6 0 0 22 58.2 72.5 29.4 0 0-53.6 11-72.7-66.3 0 0-7.6 62.7-43.6 49 0 0 14.7 69.6-38.9 74.2z"/>
				<path id="&lt;Path&gt;" class="s1" d="m449 510.7c0 0 10.5 22.9 39.6 18.3 29-4.7 40.5-42.9 40.5-42.9 0 0-41.7 48.6-80.1 24.6z"/>
				<path id="&lt;Path&gt;" class="s1" d="m523.7 400.3c0 0 63.5 36.1 85.7-32.4 0 0 22.9 39.3 62.7 11.8 0 0-45.1 7.6-62.7-47.4 0 0-22.9 80.3-85.7 68z"/>
				<path id="&lt;Path&gt;" class="s1" d="m664.7 557c0 0 6.6 50.5 55.6 19.2 0 0-45.3 1.8-55.6-19.2z"/>
				<path id="&lt;Path&gt;" class="s1" d="m651.1 409.8c0 0 5 20.4 25.6 26.5 20.7 6.1 49.7-10.9 49.7-10.9 0 0-45.9 6.9-75.3-15.6z"/>
				<path id="&lt;Path&gt;" class="s1" d="m770 522c0 0 16.1 52 77.3 19.8 0 0-42.7 82.7 31.8 93.4 0 0-46.4-26.9-13.5-105.6 0 0-62.8 26-95.6-7.6z"/>
				<g id="&lt;Group&gt;">
					<path id="&lt;Path&gt;" class="s5" d="m524.6 190.9q-0.8 0.2-1.7 0.4 0 0 0 0c-24.4 4.6-41.6-28.9-32.9-49.7 8.9-21.4 26.6-12.5 34.6-12 3.5-0.2 8.7-2 14.2-2.2 7.4-0.3 15.4 2 20.5 14.2 8.9 21.3-9.3 55.9-34.7 49.3z"/>
					<path id="&lt;Path&gt;" class="s6" d="m524.6 190.9c9.1-0.7 21.4-11.6 25.8-26 4.4-14.5-2-33.1-11.6-37.5 7.4-0.3 15.4 2 20.5 14.2 8.9 21.3-9.3 55.9-34.7 49.3z"/>
					<path id="&lt;Path&gt;" class="s7" d="m512.6 131.8c-4.1-3.7-17.1 3.5-19.1 12.9-2 9.3 2.7 25.7 6.7 26.4 4 0.7 6.9-9.1 5.3-19.8-1.5-10.6 12.1-15.1 7.1-19.5z"/>
				</g>
				<g id="&lt;Group&gt;">
					<path id="&lt;Path&gt;" class="s5" d="m352.2 187.9q-1 0.3-2 0.4 0 0 0 0.1c-28 5.3-47.7-33.2-37.8-57.1 10.2-24.5 30.6-14.3 39.8-13.8 3.9-0.2 9.9-2.2 16.3-2.5 8.5-0.3 17.7 2.3 23.5 16.3 10.2 24.5-10.7 64.3-39.8 56.6z"/>
					<path id="&lt;Path&gt;" class="s6" d="m352.2 187.9c10.5-0.8 24.5-13.3 29.6-29.8 5.1-16.6-2.3-38-13.3-43.1 8.5-0.3 17.7 2.3 23.5 16.3 10.2 24.5-10.7 64.3-39.8 56.6z"/>
					<path id="&lt;Path&gt;" class="s7" d="m338.4 120.1c-4.7-4.2-19.6 4.1-21.9 14.8-2.3 10.7 3.1 29.5 7.7 30.3 4.5 0.8 7.9-10.4 6.1-22.7-1.8-12.2 13.8-17.4 8.1-22.4z"/>
				</g>
				<g id="&lt;Group&gt;">
					<path id="&lt;Path&gt;" class="s5" d="m309.8 315.1q-0.8 0.2-1.6 0.3 0 0 0 0c-22.4 4.3-38.1-26.4-30.1-45.5 8.1-19.5 24.4-11.4 31.7-11 3.1-0.1 7.9-1.7 13-2 6.8-0.3 14.1 1.9 18.7 13 8.2 19.5-8.5 51.3-31.7 45.2z"/>
					<path id="&lt;Path&gt;" class="s6" d="m309.8 315.1c8.3-0.6 19.5-10.6 23.6-23.8 4.1-13.2-1.8-30.3-10.6-34.4 6.8-0.3 14.1 1.9 18.7 13 8.2 19.5-8.5 51.3-31.7 45.2z"/>
					<path id="&lt;Path&gt;" class="s7" d="m298.8 261c-3.7-3.4-15.6 3.2-17.5 11.8-1.8 8.5 2.5 23.6 6.1 24.2 3.7 0.6 6.3-8.4 4.9-18.1-1.4-9.8 11-13.9 6.5-17.9z"/>
				</g>
				<g id="&lt;Group&gt;">
					<path id="&lt;Path&gt;" class="s5" d="m136.3 477.5q-0.6 0.1-1.3 0.3 0 0 0 0c-18.8 3.6-32-22.2-25.3-38.3 6.8-16.4 20.5-9.5 26.6-9.2 2.7-0.1 6.7-1.5 11-1.7 5.6-0.2 11.8 1.6 15.7 10.9 6.8 16.4-7.2 43.1-26.7 38z"/>
					<path id="&lt;Path&gt;" class="s6" d="m136.3 477.5c7-0.6 16.4-8.9 19.9-20 3.4-11.1-1.6-25.5-8.9-28.9 5.6-0.2 11.8 1.6 15.7 10.9 6.8 16.4-7.2 43.1-26.7 38z"/>
					<path id="&lt;Path&gt;" class="s7" d="m127.1 432c-3.1-2.8-13.1 2.8-14.7 9.9-1.5 7.2 2.1 19.8 5.2 20.4 3 0.5 5.3-7 4.1-15.2-1.2-8.2 9.2-11.7 5.4-15.1z"/>
				</g>
				<g id="&lt;Group&gt;">
					<path id="&lt;Path&gt;" class="s5" d="m341.9 517.3q-1 0.3-2 0.5 0 0 0 0c-28 5.4-47.8-33.1-37.8-57.1 10.2-24.4 30.6-14.2 39.8-13.7 3.9-0.2 9.9-2.2 16.3-2.5 8.5-0.4 17.6 2.3 23.5 16.2 10.2 24.5-10.7 64.3-39.8 56.6z"/>
					<path id="&lt;Path&gt;" class="s6" d="m341.9 517.3c10.4-0.7 24.5-13.2 29.6-29.8 5.1-16.6-2.3-38-13.3-43 8.5-0.4 17.6 2.3 23.5 16.2 10.2 24.5-10.7 64.3-39.8 56.6z"/>
					<path id="&lt;Path&gt;" class="s7" d="m328.1 449.5c-4.7-4.2-19.6 4.1-21.9 14.8-2.3 10.7 3.1 29.6 7.6 30.3 4.6 0.8 7.9-10.4 6.2-22.6-1.8-12.3 13.8-17.4 8.1-22.5z"/>
				</g>
				<g id="&lt;Group&gt;">
					<path id="&lt;Path&gt;" class="s5" d="m165.3 638.3q-0.7 0.2-1.4 0.3 0 0 0 0c-19.9 3.9-33.9-23.5-26.9-40.5 7.3-17.5 21.8-10.2 28.3-9.8 2.8-0.2 7.1-1.6 11.6-1.8 6.1-0.3 12.6 1.6 16.7 11.6 7.3 17.4-7.6 45.7-28.3 40.2z"/>
					<path id="&lt;Path&gt;" class="s6" d="m165.3 638.3c7.5-0.5 17.5-9.4 21.1-21.2 3.6-11.8-1.7-27-9.5-30.6 6.1-0.3 12.6 1.6 16.7 11.6 7.3 17.4-7.6 45.7-28.3 40.2z"/>
					<path id="&lt;Path&gt;" class="s7" d="m155.5 590.1c-3.3-3-13.9 2.9-15.6 10.5-1.6 7.6 2.2 21 5.5 21.6 3.3 0.5 5.6-7.5 4.3-16.2-1.2-8.7 9.9-12.3 5.8-15.9z"/>
				</g>
				<g id="&lt;Group&gt;">
					<path id="&lt;Path&gt;" class="s5" d="m229.5 784.8q-0.9 0.2-1.9 0.4 0 0-0.1 0c-28 5.4-47.7-33.1-37.7-57 10.2-24.5 30.6-14.3 39.7-13.8 4-0.2 10-2.2 16.3-2.5 8.5-0.4 17.7 2.3 23.5 16.3 10.2 24.4-10.7 64.2-39.8 56.6z"/>
					<path id="&lt;Path&gt;" class="s6" d="m229.5 784.8c10.5-0.8 24.5-13.3 29.6-29.9 5.1-16.5-2.3-38-13.3-43 8.5-0.4 17.7 2.3 23.5 16.3 10.2 24.4-10.7 64.2-39.8 56.6z"/>
					<path id="&lt;Path&gt;" class="s7" d="m215.8 716.9c-4.7-4.2-19.7 4.1-21.9 14.8-2.3 10.7 3 29.6 7.6 30.4 4.6 0.7 7.9-10.5 6.1-22.7-1.8-12.3 13.8-17.4 8.2-22.5z"/>
				</g>
				<g id="&lt;Group&gt;">
					<path id="&lt;Path&gt;" class="s5" d="m435.6 607.2q-0.7 0.1-1.4 0.3 0 0 0 0c-19.4 3.7-33.1-23-26.2-39.6 7.1-16.9 21.2-9.9 27.6-9.5 2.7-0.2 6.8-1.5 11.3-1.7 5.8-0.3 12.2 1.5 16.2 11.2 7.1 17-7.4 44.6-27.5 39.3z"/>
					<path id="&lt;Path&gt;" class="s6" d="m435.6 607.2c7.2-0.6 16.9-9.2 20.5-20.7 3.5-11.5-1.6-26.3-9.2-29.8 5.8-0.3 12.2 1.5 16.2 11.2 7.1 17-7.4 44.6-27.5 39.3z"/>
					<path id="&lt;Path&gt;" class="s7" d="m426 560.2c-3.2-3-13.6 2.8-15.2 10.2-1.6 7.4 2.1 20.5 5.3 21 3.2 0.6 5.5-7.2 4.3-15.7-1.3-8.5 9.5-12.1 5.6-15.5z"/>
				</g>
				<g id="&lt;Group&gt;">
					<path id="&lt;Path&gt;" class="s5" d="m472.2 420q-1 0.3-2 0.5 0 0 0 0c-28 5.3-47.7-33.2-37.8-57.1 10.2-24.5 30.6-14.3 39.8-13.8 3.9-0.2 9.9-2.2 16.3-2.5 8.5-0.3 17.7 2.3 23.5 16.3 10.2 24.5-10.7 64.3-39.8 56.6z"/>
					<path id="&lt;Path&gt;" class="s6" d="m472.2 420c10.5-0.8 24.5-13.2 29.6-29.8 5.1-16.6-2.3-38-13.3-43.1 8.5-0.3 17.7 2.3 23.5 16.3 10.2 24.5-10.7 64.3-39.8 56.6z"/>
					<path id="&lt;Path&gt;" class="s7" d="m458.4 352.2c-4.7-4.2-19.6 4.1-21.9 14.8-2.3 10.7 3.1 29.6 7.7 30.3 4.6 0.8 7.9-10.4 6.1-22.7-1.8-12.2 13.8-17.4 8.1-22.4z"/>
				</g>
				<g id="&lt;Group&gt;">
					<path id="&lt;Path&gt;" class="s5" d="m633.1 297.4q-0.7 0.2-1.4 0.3 0 0 0 0c-20.9 4-35.5-24.6-28.1-42.3 7.6-18.2 22.7-10.6 29.5-10.2 3-0.2 7.4-1.7 12.1-1.9 6.3-0.3 13.2 1.7 17.5 12.1 7.5 18.2-8 47.7-29.6 42z"/>
					<path id="&lt;Path&gt;" class="s6" d="m633.1 297.4c7.8-0.6 18.2-9.8 22-22.1 3.8-12.4-1.7-28.3-9.9-32 6.3-0.3 13.2 1.7 17.5 12.1 7.5 18.2-8 47.7-29.6 42z"/>
					<path id="&lt;Path&gt;" class="s7" d="m622.9 247c-3.5-3.1-14.6 3.1-16.3 11-1.7 8 2.3 22 5.7 22.6 3.4 0.5 5.9-7.8 4.6-16.9-1.4-9.1 10.2-12.9 6-16.7z"/>
				</g>
				<g id="&lt;Group&gt;">
					<path id="&lt;Path&gt;" class="s5" d="m824.9 250.7q-0.8 0.2-1.6 0.4 0 0 0 0c-22.3 4.3-37.9-26.3-30-45.4 8.1-19.4 24.3-11.3 31.6-10.9 3.1-0.2 7.9-1.8 12.9-2 6.8-0.3 14.1 1.8 18.7 12.9 8.1 19.5-8.5 51.1-31.6 45z"/>
					<path id="&lt;Path&gt;" class="s6" d="m824.9 250.7c8.3-0.6 19.4-10.5 23.5-23.7 4.1-13.2-1.8-30.2-10.6-34.2 6.8-0.3 14.1 1.8 18.7 12.9 8.1 19.5-8.5 51.1-31.6 45z"/>
					<path id="&lt;Path&gt;" class="s7" d="m814 196.8c-3.8-3.3-15.6 3.3-17.5 11.8-1.8 8.5 2.5 23.5 6.1 24.1 3.7 0.6 6.3-8.3 4.9-18-1.4-9.8 10.9-13.9 6.5-17.9z"/>
				</g>
				<g id="&lt;Group&gt;">
					<path id="&lt;Path&gt;" class="s5" d="m832.2 420q-0.9 0.3-1.9 0.5 0 0 0 0c-28.1 5.3-47.8-33.2-37.8-57.1 10.2-24.5 30.6-14.3 39.7-13.8 4-0.2 10-2.2 16.3-2.5 8.5-0.3 17.7 2.3 23.5 16.3 10.2 24.5-10.7 64.3-39.8 56.6z"/>
					<path id="&lt;Path&gt;" class="s6" d="m832.2 420c10.5-0.8 24.5-13.2 29.6-29.8 5.1-16.6-2.3-38-13.3-43.1 8.5-0.3 17.7 2.3 23.5 16.3 10.2 24.5-10.7 64.3-39.8 56.6z"/>
					<path id="&lt;Path&gt;" class="s7" d="m818.5 352.2c-4.7-4.2-19.7 4.1-21.9 14.8-2.3 10.7 3 29.6 7.6 30.3 4.6 0.8 7.9-10.4 6.1-22.7-1.8-12.2 13.8-17.4 8.2-22.4z"/>
				</g>
				<g id="&lt;Group&gt;">
					<path id="&lt;Path&gt;" class="s5" d="m961.4 420.1q-0.7 0.2-1.4 0.3 0 0 0 0c-20.1 3.8-34.2-23.7-27.1-40.9 7.3-17.5 21.9-10.2 28.5-9.8 2.8-0.2 7.1-1.6 11.7-1.8 6-0.3 12.6 1.6 16.8 11.6 7.3 17.6-7.7 46.1-28.5 40.6z"/>
					<path id="&lt;Path&gt;" class="s6" d="m961.4 420.1c7.5-0.6 17.5-9.5 21.2-21.4 3.6-11.9-1.7-27.2-9.5-30.8 6-0.3 12.6 1.6 16.8 11.6 7.3 17.6-7.7 46.1-28.5 40.6z"/>
					<path id="&lt;Path&gt;" class="s7" d="m951.5 371.5c-3.3-3-14 2.9-15.7 10.6-1.6 7.7 2.2 21.2 5.5 21.7 3.3 0.6 5.7-7.5 4.4-16.2-1.3-8.8 9.9-12.5 5.8-16.1z"/>
				</g>
				<g id="&lt;Group&gt;">
					<path id="&lt;Path&gt;" class="s5" d="m741.6 520.2q-0.8 0.2-1.6 0.4 0 0-0.1 0c-22.6 4.3-38.5-26.7-30.5-46.1 8.3-19.7 24.8-11.5 32.2-11.1 3.1-0.2 8-1.8 13.1-2 6.9-0.3 14.3 1.8 19 13.1 8.2 19.8-8.7 51.9-32.1 45.7z"/>
					<path id="&lt;Path&gt;" class="s6" d="m741.6 520.2c8.4-0.6 19.7-10.7 23.8-24.1 4.2-13.3-1.8-30.6-10.7-34.7 6.9-0.3 14.3 1.8 19 13.1 8.2 19.8-8.7 51.9-32.1 45.7z"/>
					<path id="&lt;Path&gt;" class="s7" d="m730.4 465.5c-3.8-3.4-15.8 3.3-17.7 11.9-1.8 8.7 2.5 23.9 6.2 24.5 3.7 0.6 6.4-8.4 5-18.3-1.5-9.9 11.1-14.1 6.5-18.1z"/>
				</g>
				<g id="&lt;Group&gt;">
					<path id="&lt;Path&gt;" class="s5" d="m946.1 574q-1 0.2-2 0.4 0 0 0 0c-28.1 5.4-47.8-33.1-37.8-57 10.2-24.5 30.6-14.3 39.8-13.8 3.9-0.2 9.9-2.2 16.3-2.5 8.5-0.4 17.6 2.3 23.4 16.3 10.2 24.4-10.7 64.2-39.7 56.6z"/>
					<path id="&lt;Path&gt;" class="s6" d="m946.1 574c10.4-0.8 24.4-13.3 29.5-29.9 5.1-16.5-2.3-37.9-13.2-43 8.5-0.4 17.6 2.3 23.4 16.3 10.2 24.4-10.7 64.2-39.7 56.6z"/>
					<path id="&lt;Path&gt;" class="s7" d="m932.3 506.2c-4.7-4.3-19.6 4-21.9 14.7-2.3 10.7 3 29.6 7.6 30.4 4.6 0.7 7.9-10.5 6.1-22.7-1.7-12.2 13.8-17.4 8.2-22.4z"/>
				</g>
				<g id="&lt;Group&gt;">
					<path id="&lt;Path&gt;" class="s5" d="m1093.6 638.7q-1 0.3-2 0.5 0 0 0 0c-28 5.3-47.8-33.2-37.8-57.1 10.2-24.5 30.6-14.3 39.8-13.8 3.9-0.2 9.9-2.2 16.3-2.4 8.5-0.4 17.6 2.2 23.5 16.2 10.1 24.5-10.8 64.3-39.8 56.6z"/>
					<path id="&lt;Path&gt;" class="s6" d="m1093.6 638.7c10.4-0.8 24.5-13.2 29.6-29.8 5-16.6-2.3-38-13.3-43 8.5-0.4 17.6 2.2 23.5 16.2 10.1 24.5-10.8 64.3-39.8 56.6z"/>
					<path id="&lt;Path&gt;" class="s7" d="m1079.8 570.9c-4.7-4.2-19.6 4.1-21.9 14.8-2.3 10.7 3 29.6 7.6 30.3 4.6 0.8 7.9-10.4 6.2-22.7-1.8-12.2 13.7-17.4 8.1-22.4z"/>
				</g>
				<g id="&lt;Group&gt;">
					<path id="&lt;Path&gt;" class="s5" d="m994.5 678q-0.6 0.1-1.2 0.2 0 0 0 0c-17.8 3.5-30.4-21-24-36.2 6.4-15.5 19.4-9.1 25.2-8.7 2.5-0.2 6.3-1.4 10.4-1.6 5.4-0.3 11.2 1.4 14.9 10.3 6.5 15.6-6.8 40.8-25.3 36z"/>
					<path id="&lt;Path&gt;" class="s6" d="m994.5 678c6.7-0.5 15.6-8.5 18.8-19 3.2-10.5-1.4-24.1-8.4-27.3 5.4-0.3 11.2 1.4 14.9 10.3 6.5 15.6-6.8 40.8-25.3 36z"/>
					<path id="&lt;Path&gt;" class="s7" d="m985.8 634.9c-3-2.7-12.5 2.6-13.9 9.4-1.5 6.8 1.9 18.8 4.8 19.2 2.9 0.5 5-6.6 3.9-14.4-1.1-7.7 8.8-11 5.2-14.2z"/>
				</g>
				<g id="&lt;Group&gt;">
					<path id="&lt;Path&gt;" class="s5" d="m917.7 816.4q-1 0.2-2 0.4 0 0 0 0c-28 5.4-47.8-33.1-37.8-57 10.2-24.5 30.6-14.3 39.8-13.8 3.9-0.2 9.9-2.2 16.3-2.5 8.5-0.4 17.6 2.3 23.4 16.3 10.2 24.4-10.7 64.2-39.7 56.6z"/>
					<path id="&lt;Path&gt;" class="s6" d="m917.7 816.4c10.4-0.8 24.4-13.3 29.6-29.9 5-16.5-2.3-38-13.3-43 8.5-0.4 17.6 2.3 23.4 16.3 10.2 24.4-10.7 64.2-39.7 56.6z"/>
					<path id="&lt;Path&gt;" class="s7" d="m903.9 748.6c-4.7-4.3-19.6 4-21.9 14.7-2.3 10.7 3 29.6 7.6 30.4 4.6 0.7 7.9-10.5 6.1-22.7-1.7-12.3 13.8-17.4 8.2-22.4z"/>
				</g>
				<path id="&lt;Path&gt;" class="s1" d="m195.5 697.9c0 0 9.2 18.9 34 20.5 24.9 1.7 45.3-13.4 45.3-13.4 0 0 3.1 19.5 26.5 13.6 0 0-21.9-5.8-22.4-29.5 0 0-38.8 31.2-83.4 8.8z"/>
				<path id="&lt;Path&gt;" class="s1" d="m136.3 571.7c0 0 12.3 25 29 22.2 16.8-2.9 21.9-14.8 21.9-14.8 0 0 10.2 18 29.8 2.1 0 0-22.7 1.9-29.8-15.4 0 0-17 33.3-50.9 5.9z"/>
				<path id="&lt;Path&gt;" class="s4" d="m115.7 415.4c0 0 2.9 16.1 20.6 18.3 17.8 2.3 28.4-12.8 28.4-12.8 0 0-28.5 9.4-49-5.5z"/>
				<path id="&lt;Path&gt;" class="s1" d="m429.8 330.9c0 0 12.7 25.2 42.4 23.8 29.7-1.4 50.1-27.5 50.1-27.5 0 0 10.9 27.6 50.3 13.8 0 0-36.7-1.3-47.2-33.5 0 0-40.2 48.9-95.6 23.4z"/>
				<path id="&lt;Path&gt;" class="s1" d="m601.7 232.7c0 0 10 20.3 34.8 17.3 24.8-3.1 35.6-27.9 35.6-27.9 0 0-34.9 27.3-70.4 10.6z"/>
				<path id="&lt;Path&gt;" class="s4" d="m490.4 117.8c0 0 17.6 20.1 36.7 18.3 19-1.8 34.5-21.1 34.5-21.1 0 0-35.2 18.1-71.2 2.8z"/>
				<path id="&lt;Path&gt;" class="s4" d="m309.8 111.6c0 0 11.3 36.1 42.4 12.6 0 0 26.5 25.9 50.4-22.4 0 0-24.2 26.8-46.4 4.4 0 0-25 17-46.4 5.4z"/>
				<path id="&lt;Path&gt;" class="s4" d="m805.5 185.8c0 0 7.2 13.5 19.4 12.5 12.2-1 22.1-16.6 22.1-16.6z"/>
				<path id="&lt;Path&gt;" class="s1" d="m789.9 332.3c0 0 4.4 16.3 18 27.8 13.6 11.6 25.8-5.1 25.8-5.1 0 0 27.8 15.7 40.9-22.7 0 0-17.8 20.7-47.7 8.8 0 0-13.9 13.9-37-8.8z"/>
				<path id="&lt;Path&gt;" class="s1" d="m1127.4 554.6c0 0-10.6 25-33.8 24-23.3-1.1-36.3-27.3-36.3-27.3 0 0-1.1 23-35.8 18.5 0 0 32.5-8.1 32-36.1 0 0 30.6 44.3 73.9 20.9z"/>
				<path id="&lt;Path&gt;" class="s1" d="m933.5 608.1c0 0 11.4 42.9 49.6 8 0 0 2 46 53 13.7 0 0-40.2 4.9-47.6-29.3 0 0-25 34.2-55 7.6z"/>
				<path id="&lt;Path&gt;" class="s1" d="m863.3 710.1c0 0 13.4 52.5 54.4 48.5 40.9-4.1 56.7-35.7 56.7-35.7 0 0 29.1 56.1 73-2.1 0 0-45.1 37.8-75.6-18.8 0 0-45.3 67.3-108.5 8.1z"/>
				<path id="&lt;Path&gt;" class="s1" d="m401.8 542.4c0 0 9.2 25.5 36.2 23.4 27-2 31.7-23.4 31.7-23.4 0 0-30.7 21.4-67.9 0z"/>
				<path id="&lt;Path&gt;" class="s1" d="m299.5 434c0 0 8.7 24.4 39.6 24.7 30.8 0.4 59.6-27.4 59.6-27.4 0 0 7 42.2 54.5 27.4 0 0-42.7 2.1-54-51.5 0 0-42.5 53.7-99.7 26.8z"/>
				<path id="&lt;Path&gt;" class="s1" d="m720.3 450.1c0 0 6.3 22.3 25.2 22.9 18.9 0.6 39.2-22.9 39.2-22.9 0 0 26.3 72.9 89.9 11.4 0 0-56.2 40.8-87.8-31.2 0 0-32.9 45.4-66.5 19.8z"/>
				<path id="&lt;Path&gt;" class="s1" d="m933.5 357.8c0 0 10.3 21.9 33.8 18.3 23.5-3.5 24.4-18.3 24.4-18.3 0 0-28.2 15.3-58.2 0z"/>
				<path id="&lt;Path&gt;" class="s1" d="m903.7 486.1c0 0 15.1 30.7 42.4 29.2 27.2-1.5 45.6-24.1 45.6-24.1 0 0-50.6 14.6-88-5.1z"/>
				<path id="&lt;Path&gt;" class="s1" d="m426.9 665.5c0 0 31.2 45 74.3 13.1 0 0-34.2 72.3-74.3-13.1z"/>
				<path id="&lt;Path&gt;" class="s3" d="m809.3 571.7q0 0 0 0.1c-4.5 51.4-18.1 117.6-56.8 146.6-55.5 41.7-110 120.3-128 147.5 4-20.8 12.7-56.9 12.7-56.9 0 0 47.9-46.9 82.9-74.4 34.9-27.5 66-74.7 74.2-104.4 8.1-29.7 15-58.5 15-58.5z"/>
				<path id="&lt;Path&gt;" class="s3" d="m685.2 1349.7l-1.3 0.5c-14.4-117.2-54.3-167.4-77.9-305.1-23.5-137.6-0.9-230.1 0-340.7 0.8-109.9-8.7-264.7-8.8-266.8 5.6 28.7 10.7 57.2 14.2 81.8 13.4 93.9 24.7 222.3 26.9 326.2 2.3 103.8 0.9 169.4 23.2 272.2 16 74.1 21.8 178.9 23.7 231.9z"/>
				<path id="&lt;Path&gt;" class="s3" d="m678.9 453.5c-1.9 9.1-3.2 17.6-3.5 24.7-1.6 36.7-61.7 126.1-61.7 126.1l4-37.1c0 0 17-19.7 33.2-47.8 15.6-27.2 27.3-63.7 28-65.9z"/>
				<path id="&lt;Path&gt;" class="s8" d="m593.2 656.2c-3.4 96-11.8 168.7-16.4 263.5-4.6 94.8-0.8 175.9-3.1 240.2-2.3 64.2-116.2 216.4-116.2 216.4l-0.6-0.7c13.9-27.9 61.4-128.5 65.2-218.9 4.4-106.2 6.6-199.8 22.2-283.3 15.6-83.5 33.9-184 33.9-266 0-34.4-3.9-112.1-8-183.7 0 0 26.5 136.6 23 232.5z"/>
				<path id="&lt;Path&gt;" class="s8" d="m560.4 860l-11.1 40.4c0 0-86.5-94.7-128.9-144.2-42.4-49.6-47.2-126-47.2-126 14.1 51.4 39.4 105.8 79.8 142.8 42.5 39.1 84.1 70.3 107.4 87z"/>
				<path id="&lt;Path&gt;" class="s8" d="m580.9 696l-5.1 32.5c0 0-38.8-50.5-57.9-81.8-19.1-31.3-27.1-105.5-27.1-105.5 6.8 32.8 18.1 74.1 35 96.7 20.7 27.7 42.8 47.9 55.1 58.1z"/>
				<path id="&lt;Path&gt;" class="s8" d="m587.5 980.1c0 0 3.8 96.4 0 155.3-3.8 58.9-13.4 81.8-33.8 121.6-20.5 39.8-69.6 97.1-74.5 114.7-4.9 17.6 15 11.5 29.5 11.5 14.5 0 19.9 23 32.1 17.6 12.3-5.4 6.9-47.4 25.3-103.3 18.3-55.8 40.1-105.5 42.2-152.2 2.1-46.6-20.8-165.2-20.8-165.2z"/>
				<path id="&lt;Path&gt;" class="s3" d="m621.3 1150.7c0 0 31.2 90.2 38.9 129.3 7.6 39 8.1 81.5 4.3 103.1-3.7 21.6-22.7 20.9-36.5 18.5-13.7-2.3 4-17.8 10.8-63.6 6.8-45.8-17.5-187.3-17.5-187.3z"/>
				<path id="&lt;Path&gt;" class="s8" d="m615 1184.3c0 0-30 85.7-35.3 114.8-5.2 29-9.5 84-9.5 84 0 0 27.5-80.6 37.3-106.4 9.8-25.8 7.5-92.4 7.5-92.4z"/>
				<path id="&lt;Path&gt;" class="s3" d="m622.9 1235.6c0 0 0.1 39-15.4 75.7-15.4 36.7-16 71.8-16 71.8 0 0 21.8-5.8 33-42.6 11.2-36.8-1.6-104.9-1.6-104.9z"/>
			</g>
		</g>
	</g>
</svg>