<svg version="1.2" xmlns="http://www.w3.org/2000/svg" viewBox="0 0 111 378" width="111" height="378">
	<title>321353356351 2</title>
	<style>
		.s0 { fill: #66a400 } 
		.s1 { fill: #537500 } 
	</style>
	<g id="321353356351 2">
		<g id="&lt;Group&gt;">
			<g id="-e- Stage 2">
				<g id="&lt;Group&gt;">
					<path id="&lt;Path&gt;" class="s0" d="m8.2 0.9c0 0-6.7 25.3-7.9 48.2-1.2 22.9 13.3 56.6 51.8 66.9 0 0 12.1-25.9 4.2-54.2-7.8-28.3-48.1-60.9-48.1-60.9z"/>
				</g>
				<path id="&lt;Path&gt;" class="s1" d="m18 29.2c15.7 28.1 29.1 57.6 38.3 88.5 6.5 18.9 5.6 39.6 13 58.3 20.2 40.6 16.3 41.4-4.1 79.9-8.3 15.8 5.9 27.4 17.6 36.1 30.3 21.5 36.8 54.9 16.4 86.1 20.6-40.6 5.9-65.9-29.1-89.6-11.3-7.6-16.6-22.3-10.5-34.8 28.2-52.2 15.9-37 0.3-87.4-5.3-48-21.5-93.5-41.9-137.1z"/>
			</g>
		</g>
	</g>
</svg>