<svg version="1.2" xmlns="http://www.w3.org/2000/svg" viewBox="0 0 1050 1549" width="1050" height="1549">
	<title>321353356351 2</title>
	<style>
		.s0 { fill: #66a400 } 
		.s1 { fill: #609100 } 
		.s2 { fill: #773d12 } 
		.s3 { fill: #66300c } 
		.s4 { fill: #7ab812 } 
		.s5 { fill: #89491d } 
	</style>
	<g id="321353356351 2">
		<g id="&lt;Group&gt;">
			<g id="-e- Stage 6">
				<g id="&lt;Group&gt;">
					<path id="&lt;Path&gt;" class="s0" d="m1049 558.9c-2.8 64.5-73.8 78.2-73.8 78.2 0 0 32.8 47.7-4.2 99-36.9 51.4-110.7 18.5-110.7 18.5 0 0 4.1 56.9-42.3 62-46.5 5-67-42.1-67-42.1 0 0-24.6 47.2-45.1 0 0 0-53.3 69.9-97.1-9.1 0 0-34.2 75.4-94.3 46 0 0-54.7 78.5-118.9 39.6-64.3-38.9-57.4-90.7-57.4-90.7 0 0-12.3 28.1-30.1 5.1 0 0-9.6 87.7-99.8 33 0 0-73.8 22.8-79.3-50.8 0 0-92.9 15.3-56-92.7 0 0-53.3-44.9-2.7-75.1 0 0-76.6-7.1-43.8-87 0 0-72.4-58.2 26-119 0 0-56.1-77.1 23.2-108.5 0 0-2.7-61.5 72.5-47.8 0 0 4.1-34.2 34.1-34.2 0 0-25.9-83.4 62.9-98.4 0 0 9.6-53.3 62.9-34.2 0 0 51.4-83.4 94 4.1 0 0 42.7-45.1 74.1 4.1 0 0 36.9-65.6 90.2-57.4 53.4 8.2 69.8 72.4 69.8 72.4 0 0 50.5-39.6 61.5 20.5 0 0 97-50.5 103.9 65.7 0 0 65.6-19.2 49.2 72.4 0 0 50.5-18.2 80.6 11.4 30.1 29.6 13.7 88.5 13.7 88.5 0 0 50.6-4.2 36.9 54.6 0 0 72.4 24.6 20.5 97 0 0 49.2 10.4 46.5 74.9z"/>
				</g>
				<g id="&lt;Group&gt;">
					<path id="&lt;Path&gt;" class="s1" d="m1049 558.9c-2.8 64.5-73.8 78.2-73.8 78.2 0 0 32.8 47.7-4.2 99-36.9 51.4-110.7 18.5-110.7 18.5 0 0 4.1 56.9-42.3 62-46.5 5-67-42.1-67-42.1 0 0-24.6 47.2-45.1 0 0 0-53.3 69.9-97.1-9.1 0 0-34.2 75.4-94.3 46 0 0-54.7 78.5-118.9 39.6-64.3-38.9-57.4-90.7-57.4-90.7 0 0-12.3 28.1-30.1 5.1 0 0-9.6 87.7-99.8 33 0 0-73.8 22.8-79.3-50.8 0 0-92.9 15.3-56-92.7 0 0-53.3-44.9-2.7-75.1 0 0 5.7 61 88.2 39.3 0 0-10.9 57.6 50.3 59.3 0 0 17.6 60.5 82 1.8 0 0 40.9 64.3 103.4 7.6 0 0 38.6 33.3 64.6-33.4 0 0 26.1 51.4 97.6 24 0 0 68.3 72.7 109.8-7.1 0 0 40.3 56.4 89-4.1 0 0 24.1 55.4 81.5 11.2 0 0 69.7 33.6 77.3-67.3 0 0 135.7 1.2 88.5-127.1 0 0 49.2 10.4 46.5 74.9z"/>
				</g>
				<path id="&lt;Path&gt;" class="s2" d="m608.8 1226.3h-206.7c0 0 2.1-3.9 5.5-10.8 14.4-29.4 52.6-113.7 55.8-189.9 3.9-94.1 5.8-177.1 19.7-251.1 13.8-74 30-163.1 30-235.8 0-33-4-110.9-8-178.4-3.6-62.7-7.1-116.4-7.1-116.4 0 0 18.9 77.3 33.2 150.9q0 0 0 0 0 0 0 0c4.5 23.2 8.6 46 11.4 65.9 11.9 83.2 21.9 197.1 23.8 289.1 2 92 0.8 150.2 20.5 241.3 14.2 65.5 19.3 158.2 21.1 205.3 0.6 18.5 0.8 29.9 0.8 29.9z"/>
				<path id="&lt;Path&gt;" class="s2" d="m514.5 774.5l-24.6 110.7c-21.9-88.3-101.2-156.5-136.7-219.4-35.5-62.9-34.2-181.8-34.2-181.8 0.7 13.9 2.6 29.8 5.8 46.7v0.1c10.2 52.7 34.1 114.9 77.3 154.7 35 32.1 69.2 58.2 90.5 73.7 13.6 9.8 21.9 15.3 21.9 15.3z"/>
				<path id="&lt;Path&gt;" class="s2" d="m718.3 504.4c-3.8 46-15.7 106.4-50.7 132.7-46.6 35-92.4 99.3-110.7 126.5-5.3 7.9-8.2 12.7-8.2 12.7l-16.4-75c0 0 50.6-53.6 105.2-77.3 54.7-23.8 82-178 82-178 0 0 1.5 25.4-1.2 58.4z"/>
				<path id="&lt;Path&gt;" class="s2" d="m779.7 649.4c-0.3 0.6-10.9 25.7-35.3 60.3-16.1 22.8-38.2 49.7-67.2 76.6-51.9 47.9-88.2 108-105.3 139.5-7.2 13.4-10.9 21.6-10.9 21.6l-8.2-77.9c0 0 42.3-70.2 105.2-104.1 62.4-33.7 120.8-114.7 121.7-116z"/>
				<path id="&lt;Path&gt;" class="s2" d="m402.1 713.4c0 0-68 48.1-124.1-33.2 0 0 30.1 101.3 150.4 67.4z"/>
				<path id="&lt;Path&gt;" class="s2" d="m342.3 612.7c0 0-42.4-12.3-72.5-32.9-30-20.6-43.7-64.3-43.7-64.3 0 0 12.3 73.8 51.9 95.6 39.7 21.9 88.9 56.1 88.9 56.1z"/>
				<path id="&lt;Path&gt;" class="s3" d="m744.4 709.7c-16.1 22.8-38.2 49.7-67.2 76.6-51.9 47.9-88.2 108-105.3 139.5-7.4-7.1-12.3-12.2-12.3-12.2 2-4 8.2-36.7 36.7-68.3 28.6-31.6 120.2-95.8 137.6-127.9 2.9-5.3 6.4-7.6 10.5-7.7z"/>
				<path id="&lt;Path&gt;" class="s2" d="m524.1 624l-9.6 77.3c0 0-35.5-64.2-60.1-110-24.6-45.8-26-154.4-26-154.4 0 0 2.5 21.1 8.1 47.1 6.1 28.4 15.9 62.6 30.2 81.7 19.1 25.6 39.5 43.9 50.1 52.6 4.6 3.7 7.3 5.7 7.3 5.7z"/>
				<path id="&lt;Path&gt;" class="s3" d="m611.4 368.7c-5.9 19.1-11.5 40.6-12.2 55.4-1.1 27.3-38.8 87.5-50.9 106.2v-26c0 0 33.6-46.4 41.3-80.1 7.7-33.7 14.2-63.3 14.2-63.3z"/>
				<path id="&lt;Path&gt;" class="s2" d="m694.9 569.1c0 0 49.2-15.4 84.8-53.6 0 0-52.8 72.7-91.6 86.9z"/>
				<path id="&lt;Path&gt;" class="s2" d="m617 484c0 0-15 59.6 0 81.7 15.1 22.2 36.9 58.3 36.9 58.3l-45.1 25.4c0 0-20.5-62.7-19.1-92.2 1.3-29.4 27.3-73.2 27.3-73.2z"/>
				<g id="&lt;Group&gt;">
					<path id="&lt;Path&gt;" class="s0" d="m389.2 436.9c0 0 14 41.3 54.1 30.4 40.1-10.9 29.7-111.2 29.7-111.2 0 0 58.4 24.3 59.3-49.2 0 0 10.6 23.7 34.9 15.2 0 0-1.8 85.7 77.2 55.3l6-105.1-187.1-50.4c0 0-84.4 52.2-89.3 69.2-4.8 17 15.2 145.8 15.2 145.8z"/>
				</g>
				<path id="&lt;Path&gt;" class="s2" d="m851.6 1398.4c-32-5.8-42.5-17.8-77.2-4.7-10.8-18-25.9-28.3-47.4-26.6-8.2-23.7-22.2-46-42.6-61.1 21.8-8.5 43.3 8.1 57.3 23.7-13.8-21-39.8-41.4-66-29.5-16.7-9.2-35.3-15.5-49.1-29.2 126.1-29 88.1 38.1 142.7 55.8 9.5 19.1 25.5 34.7 44.2 44.7-16.9-10.5-31.1-25.9-39.3-44.1 21.3 1.1 42.3-4.6 62.5-10.9-22.8 4.9-47.8 11.2-70.7 4.2-11.6-4.9-16.9-17.5-23.2-27.8 3.9-1.8 7.9-3.3 11.9-4.5 1 0.3 2.1-0.1 2.7-0.8 11.1-3 22.6-4 34-2.9-11-2.6-22.5-3.3-33.6-1.9-1.5-14.4 7.1-28.3 20-34.6-14.7 5.2-25.2 19.6-25.1 35.3-4.6 0.8-9.1 1.8-13.4 3.2-35.4-68.5-113 0.2-131.3-90.3l-17.1 21.6c-1.2-3.2-2.4-6.5-3.2-9.8-1.2-4.4-4.7-7.5-8.9-8.5l-2.6-14.1-135.2 14.4-6.1 6.6c-4.8-4.7-12.6-4.3-17.1 0.7-17.9 20.2-38.5 38.1-61.6 52.2-6.4-1.5-12.9-2.5-19.3-3.2-5-8.7-13.2-15.9-23-18.4 8.2 3.3 14.5 10.1 18.3 18-9.9-0.8-20.1-0.4-29.9 1.4 15.4-0.6 30.7 2.3 45.2 7.2-16.3 9.3-34.5 16.1-52.5 21.7-14.4-3-29-5.1-43.7-6-18.7-11-38.9-21.6-60.8-23.6 16.7 3.9 31.2 13.4 44.8 23.3-16.1 0.2-32.7 2.6-46.9 10.8-26.5 11.4-57.1 3.8-83-6 20 9.5 42 16.5 64.4 15.9-12 14.4-22.3 30.4-29 47.9 8.9-18.3 21.9-34.7 36.7-48.6 7.1-0.8 13.9-3.5 20.4-6.3 23.8-7.9 49.7-3.7 73.8 1.1-29.7 11.6-62.4 29.6-71.3 62.7-22.3 6.5-43.3 22.2-50.8 44.8 8.8-20.1 28.5-33.2 49.3-38.1-2.9 15.6-0.4 31.6 3.5 46.6-12.4 15.4-21.4 33.4-26.2 52.5 5.8-17.6 15.2-33.9 27.5-47.7 7.3 24.8 18.3 48.4 31.1 70.7-20.6-45.5-53.6-114.4-7.6-154.4 3.1 16.4 7 32.8 14.8 47.7 8.3 14.6 13.4 30.9 16.1 47.6-1.1-18.2-5.8-36.2-13.3-52.9 18 3.1 37.5 11 46.5 28-8.4-18.8-28.9-28.2-48-32.4-4.5-14.3-6.5-29.4-7.6-44.3 21.3-13.8 46.2-20.6 70.8-27.3-19 24-24.5 39.6-2.6 64.2-17.3-24.2-13.8-37.2 5.9-57.8 9-13.5 26-13.9 39.5-21 16.8-7.5 32.9-16.7 47.8-27.5 55.7-27.2 80.8-5.3 52.2 33-16.8 3.8-33.6 7.6-49.7 13.9-17.9 8.6-36.9 15-56.3 19.6 15.8-2.6 31.7-5.8 46.9-11-5.6 11.7-14.8 21.8-26.5 27.7 13.9-5.5 25.3-16.6 32-29.8 14.8-5.4 30.5-7.7 46-10.2-9.6 12.7-23 21.3-36.2 29.7-14.7 10.2-28.4 22.5-37.7 37.9-18.5 1.5-38.2 10.6-45.6 28.5 8.6-13.8 25.2-20 40.9-19.7-4.1 9-6.6 18.4-7.8 28-14.9 3-32.3 7.2-41.4 20.5 10-11.4 26.5-13.3 40.7-14.6-1 10.5-0.2 21.1 0 31.6-15 1.7-29.9 5.3-43.4 12.1-17.5-7.6-37.7-6.9-55.4-0.5 16.6-4.6 35-4.3 50.8 2.9-9.2 4.9-15.8 13-22 21.1-10.6 12.8-22.4 24.6-35.4 35 43.6-30.5 43.7-60.7 105.2-64.3-3.3 45.5-39.9 81.2-78.6 101.3 30.5-13.7 58.8-35.6 75-65.4 8.8 15.8 15.9 32.6 21.3 49.9-4.5-18.7-10.7-37-19.1-54.4 22.2-47.3-6.3-85.5 45-126.1 1.9 9.4 4.3 18.7 7.7 27.6-8.3 17.7-11.2 37.4-11.6 56.7 1.6-17.7 5.4-35.7 13.6-51.6 3 8.4 8.6 15.7 12.7 23.6 8.3 21.9 4 46.6-0.8 68.9 23.4-78.1-6.8-66.4-13.3-131.4 10.2-7.1 22-12.2 31.9-19.7 3.7 19.1 9.7 39.2 24 53.2-13-16.6-16.1-38.6-16.9-59 16.5-14.5 28.9-32.9 38.7-52.2 25.2 23.2 29.9 62.8 0.9 85 34.2-22.3 29.3-66.7 3.2-93.5q0.7-1.5 1.3-3c2.3-7.4 47.1-27.8 66 14.7-6.9 14-12.9 28.8-14.5 44.4 3.8-13.3 10.9-25.2 18.7-36.4 6.9 13.7 13.3 27.5 18 41.9-14.5 7.8-28.4 18-37.4 31.9 10.9-11.2 25.4-17.9 40.1-22.5 3.2 12.1 4.6 25.7-2.2 36.8-11.2 3-22.4 6.1-33.5 9.5-12.1-8.1-27-11.5-41.5-10.3 12.7 0.5 25.3 4.5 35.5 12.1-25.6 7.4-49 20.7-72.2 33.6 32.8-16.4 67.2-28.2 103.5-33.9-24.4 26.9-64 39.6-80.9 73.4-19.5 12-35.4 30.7-41.2 53.1 6.5-20 21.3-36.6 39.2-47.2-1.4 5.6-0.6 11.6 1.3 16.9 2 24.7 4.8 49.5 11.5 73.4-3.9-20.1-4.7-40.6-5-61.1 20.7 27.6 51.5 45.1 81.4 61.1-15.6-9-30.5-19.1-44.5-30.3 23.3-6.5 48.8-5.8 71.6 2.6-23.5-9.7-50-11.3-74.6-5-50.1-41.9-46-64.5 8.9-97.3 5.6 24.5 21.2 47.1 43.5 59.2-12.6-9-22.4-21.4-28.3-35.7 12.9-0.8 26.3 0.7 38 6.5-11.8-7.4-25.9-10.1-39.6-10.5-2.9-8-4.8-16.3-5.3-24.8 48.4-29.6 63.9-52.4 44.5-108.6 13.5 4.2 23.9 15.3 29.5 28.2-3.8-17.4-16.2-32.8-33.2-38.8-4.8-13-10.3-25.5-16.3-37.8 6-1.8 13.2-1.2 20.4 5.8l-0.1-0.6c15.8 20.1 36.9 36.2 61 45.2 4.3 47.1-18.1 50.2-11.3 78.7-13.7 23.2-18.3 50.9-16.1 77.6-0.7-17 1.3-34.2 6.7-50.3 11.4 17.2 20 37 20.9 57.8-0.5-21.2-9.1-41.4-20.5-59.1 2.6-7.6 5.9-15 10.1-21.9 3.5 11 9.6 20.9 17 29.7-10.4-16.1-20.4-38.6-9.8-56.7 1.8-2.8 4-6.1 5.4-9.1 19.6 14.3 34.9 34.1 44.9 56.1-8.5-23.7-22.9-45.5-42.2-61.8 4.7-11.3 7.2-23.6 8-35.8 47 22.9 66.1 79.9 65.5 129.4-5.5 0.6-11 1.7-16.3 3.5-11.2-5.5-24.1-6.6-36.3-4.7 11.1-0.8 22.6 0.9 32.5 6.1-43 14.3-37.6 64.8-68.5 90.2 37.4-30.1 26.2-84.6 88.3-89.7-1.9 15.1 2.2 30.5 9.8 43.5-8.3 15.8-10.4 34.5-6.5 51.8-2.7-16.6 0.1-34.1 8.4-48.7 9.7 15.6 22.8 28.9 37.5 39.8-21.4-18.5-42.1-43.1-44.1-72.4 2.7-28.4 3.6-57.1-5.1-84.7 10.9-1 22.8 1.6 30.6 9.7-7.9 12.1-10.2 27.6-5.4 41.2-2.9-13 0.5-26.9 8.8-37.3 9.2 11 18.5 22.1 30.3 30.5-2.3 23.3 4 47.9 19.2 65.9-14.3-18-19.8-41.9-17.2-64.6 10.5 7.3 23.2 11.4 36 11.2-23.1-1-41.5-16.9-54.6-34.8 10.8-4.6 22.8-7.2 34.6-6.2 3.1 0.3 6.5 1 9.5 1.9 18.3 5.4 37.3 7.5 56.2 8.5q-13.3-1.3-26.4-3.8z"/>
				<g id="&lt;Group&gt;">
					<path id="&lt;Path&gt;" class="s4" d="m982 387c-16.2-49.4-65.4-41.5-65.4-41.5-11.2-77.6-78.6-55-78.6-55-26.5-80.6-86.6-46.6-86.6-46.6-22.5-72.1-79.6-41.1-79.6-41.1-30.6-44.9-75.5-5.1-75.5-5.1-54-50-90.8 14.3-90.8 14.3-41.7-60.2-77.1 4.1-77.1 4.1-67.6-69.4-101.3 10.2-101.3 10.2-65.3-41.9-66.3 34.6-66.3 34.6-77.5-19.3-73.4 59.2-73.4 59.2-47.9-19.4-42.8 25.4-42.8 25.4-61.2 2-47 71.5-47 71.5-88.7-9.2-71.1 75.8-71.1 75.8 0 0-72.4-58.2 26-119 0 0-56.1-77.1 23.2-108.5 0 0-2.7-61.5 72.5-47.8 0 0 4.1-34.2 34.1-34.2 0 0-25.9-83.4 62.9-98.4 0 0 9.6-53.3 62.9-34.2 0 0 51.4-83.4 94 4.1 0 0 42.7-45.1 74.1 4.1 0 0 36.9-65.6 90.2-57.4 53.4 8.2 69.8 72.4 69.8 72.4 0 0 50.5-39.6 61.5 20.5 0 0 97-50.5 103.9 65.7 0 0 65.6-19.2 49.2 72.4 0 0 50.5-18.2 80.6 11.4 30.1 29.6 13.7 88.5 13.7 88.5 0 0 50.6-4.2 36.9 54.6z"/>
				</g>
				<path id="&lt;Path&gt;" class="s0" d="m327.1 226.3c0 0 4.1-94 68.3-108.4 64.3-14.5 110.1 94.1 110.1 94.1l-67.2 51.3z"/>
				<path id="&lt;Path&gt;" class="s0" d="m596.3 197.7c0 0 35.7-50 91.8-48.4 56.1 1.5 63.3 94.6 63.3 94.6l-77.6 42z"/>
				<path id="&lt;Path&gt;" class="s0" d="m187.4 320.1c0 0-45.9-40.8-78-10.2-32.2 30.6-11.8 107.1-11.8 107.1l83.7 5.1z"/>
				<g id="&lt;Group&gt;">
					<path id="&lt;Path&gt;" class="s0" d="m158.5 619.1c0 0-27.5 91.4 32 116 59.6 24.5 100.3-54.9 100.3-54.9z"/>
				</g>
				<path id="&lt;Path&gt;" class="s0" d="m666.2 671.3c0 0 15.2 66.8 71.1 63.8 55.9-3 99.4-56.7 99.4-56.7l-85.2-63.4z"/>
				<g id="&lt;Group&gt;">
					<path id="&lt;Path&gt;" class="s1" d="m158.8 515.5c0 0 65.3 46.1 99-22.7 0 0 22.8 32.7 38.7-8.8 0 0-25.5 20.7-42.8-8.9 0 0-17.8 59-94.9 40.4z"/>
				</g>
				<g id="&lt;Group&gt;">
					<path id="&lt;Path&gt;" class="s1" d="m387.3 463.9c0 0 45.9 42.4 82.6-17.9 0 0-33.2 35.6-82.6 17.9z"/>
				</g>
				<g id="&lt;Group&gt;">
					<path id="&lt;Path&gt;" class="s1" d="m473 356.1c0 0 65.6 27.4 59.3-49.2 0 0 9.6 29.5 39.6 6.7 0 0-31.3 6.4-46.9-27.7 0 0 7 71.6-52 70.2z"/>
				</g>
				<g id="&lt;Group&gt;">
					<path id="&lt;Path&gt;" class="s1" d="m574.5 357.8c0 0 10 39.3 51.6 24.9 0 0 3.6 29.2 34.1 17.3 0 0-28.5 2.4-28.2-28.2 0 0-32 17.3-57.5-14z"/>
				</g>
				<g id="&lt;Group&gt;">
					<path id="&lt;Path&gt;" class="s1" d="m603.8 474.1c0 0 5.2 28.7 38.1 13.2 0 0-25.8 3.8-38.1-13.2z"/>
				</g>
				<g id="&lt;Group&gt;">
					<path id="&lt;Path&gt;" class="s1" d="m686.1 428.5c0 0 15.7 38.1 47.8 21.1 0 0 2.8 24.1 32.4 12.2 0 0-23.4 3.1-28.2-22.7 0 0-28.2 15.6-52-10.6z"/>
				</g>
				<g id="&lt;Group&gt;">
					<path id="&lt;Path&gt;" class="s1" d="m768.4 504.3c0 0-2.4 24.2 29.5 21.1 0 0-10.9 33.7 26.2 31.3 0 0-26.2-5.5-20.4-37.7 0 0-25.2 4.4-35.3-14.7z"/>
				</g>
				<path id="&lt;Path&gt;" class="s4" d="m82.6 459c0 0-8.7-26.7 8.7-48.9 17.3-22.2 64-7.3 64-7.3 0 0-62-5.7-72.7 56.2z"/>
				<path id="&lt;Path&gt;" class="s4" d="m162.1 345.5c0 0-0.7-28.7 19.2-37.1 19.9-8.5 50.4 15 50.4 15 0 0 6.2-50 54.4-24.9 0 0-37.5-6.2-48.2 41.2 0 0-51.3-42.7-75.8 5.8z"/>
				<path id="&lt;Path&gt;" class="s4" d="m454.3 225.8c0 0 23.6-31.4 51.2-26.8 27.6 4.6 39.1 35.2 39.1 35.2 0 0 25.5-36.8 51.7 5.3 0 0-29.5-20.6-53.2 13 0 0-23.8-63.5-88.8-26.7z"/>
				<path id="&lt;Path&gt;" class="s4" d="m719.9 241c0 0 19-9.1 35.8-4.5 16.8 4.5 24 43.6 24 43.6 0 0 30.3-19.9 33.4 23.7 0 0-13-26.8-40.6-10.7 0 0-4.2-52.8-52.6-52.1z"/>
				<path id="&lt;Path&gt;" class="s4" d="m884.2 339c0 0 17.6-13.8 35.9 0 18.4 13.7 9.1 55.8 9.1 55.8 0 0-0.6-61.2-45-55.8z"/>
				<path id="&lt;Path&gt;" class="s3" d="m608 1196.4c-5.3-70-22.4-106.4-47-187.4-24.5-81.1-30.5-166.8-16.3-292.8 14.1-125.5-13.2-319.6-13.5-321.4q0 0 0 0c4.5 23.2 8.6 46 11.4 65.9 11.9 83.2 21.9 197.1 23.8 289.1 2 92 0.8 150.2 20.5 241.3 14.2 65.5 19.3 158.2 21.1 205.3z"/>
				<path id="&lt;Path&gt;" class="s3" d="m718.3 504.4c-3.8 46-15.7 106.4-50.7 132.7-46.6 35-92.4 99.3-110.7 126.5-5.6-5.5-14.2-28.4-14.2-28.4 0 0 61.8-63.1 103.6-97.9 36.2-30.2 64.9-111.6 72-132.9z"/>
				<path id="&lt;Path&gt;" class="s5" d="m525 628.1c-12.3 116.2-24.7 210-19.5 297.7 5.1 87.8-46.9 241.6-97.9 289.7 14.4-29.4 52.6-113.7 55.8-189.9 3.9-94.1 5.8-177.1 19.7-251.1 13.8-74 30-163.1 30-235.8 0-33-4-110.9-8-178.4l0.4-0.1c0 0 31.7 151.6 19.5 267.9z"/>
				<path id="&lt;Path&gt;" class="s5" d="m516.8 618.3l-2.3 31.1c0 0-32.4-40.7-50.8-69.2-18.3-28.4-27.2-96.2-27.2-96.2 6.1 28.4 15.9 62.6 30.2 81.7 19.1 25.6 39.5 43.9 50.1 52.6z"/>
				<path id="&lt;Path&gt;" class="s5" d="m492.6 759.2l-9.5 48.4c0 0-50-72.4-99.5-119.4-47.6-45.2-58.1-149.6-58.8-157.4 10.2 52.7 34.1 114.9 77.3 154.7 35 32.1 69.2 58.2 90.5 73.7z"/>
				<path id="&lt;Path&gt;" class="s5" d="m537.7 630.1c0 0-21.9 160.1-20.9 225.4 1 65.3 14.2 149.9-19.4 221.3-33.7 71.4-50 138.7-50 138.7 0 0 33.5-75.5 58.1-107.1 24.5-31.6 32.1-140.7 26.8-196.8-5.3-56.1-6.9-126.4 0-171.8 6.9-45.4 5.4-109.7 5.4-109.7z"/>
				<path id="&lt;Path&gt;" class="s3" d="m542.7 991.1c2.6 3.1 25.3 80.6 38.4 131.6 13.2 51 17.9 103.4 17.9 103.4 0 0-32.4-71.4-46.6-117.5-14.2-46.1-9.7-117.5-9.7-117.5z"/>
				<path id="&lt;Path&gt;" class="s5" d="m531.2 1077.8c0 0-7.9 27.6-25.7 54.6-17.8 27-36.2 65.7-30 83.1 6.1 17.3 29.7 10.1 39-27.5 10.4-42.4 16.7-110.2 16.7-110.2z"/>
				<path id="&lt;Path&gt;" class="s3" d="m537.9 1089c0 0-0.9 54.6-6.7 85.7-5.8 31.1-9.9 46.9 10.8 49.7 20.7 2.8 46.8 6.8 36.1-15.5-10.8-22.3-27.8-98.4-40.2-119.9z"/>
			</g>
		</g>
	</g>
</svg>