<svg version="1.2" xmlns="http://www.w3.org/2000/svg" viewBox="0 0 403 1130" width="403" height="1130">
	<title>321353356351 2</title>
	<style>
		.s0 { fill: #66a400 } 
		.s1 { fill: #773d12 } 
	</style>
	<g id="321353356351 2">
		<g id="&lt;Group&gt;">
			<g id="-e- Stage 4">
				<g id="&lt;Group&gt;">
					<path id="&lt;Path&gt;" class="s0" d="m59.5 53.3c0 0-11.4 19.4-3.1 38 8.4 18.7 22.8 20.2 22.8 20.2 0 0 12.6-28.5-19.7-58.2z"/>
				</g>
				<g id="&lt;Group&gt;">
					<path id="&lt;Path&gt;" class="s0" d="m155.1 78c0 0-16.5-19.2-9.4-43.8 5.7-19.5 31.3-33.4 31.3-33.4 0 0 11 57.1-21.9 77.2z"/>
				</g>
				<g id="&lt;Group&gt;">
					<path id="&lt;Path&gt;" class="s0" d="m235.7 129.4c0 0-4.9-23.7 4.6-40.4 7.3-12.9 38-22.8 38-22.8 0 0-2.1 25.1-12.4 39.8-10.3 14.6-30.2 23.4-30.2 23.4z"/>
				</g>
				<g id="&lt;Group&gt;">
					<path id="&lt;Path&gt;" class="s0" d="m9.8 222.9c0 0-2.6 24.2 0 37.9 4.2 22.7 31.9 30.1 31.9 30.1 0 0 10.8-41.4-31.9-68z"/>
				</g>
				<g id="&lt;Group&gt;">
					<path id="&lt;Path&gt;" class="s0" d="m106.3 383.9c0 0-27.5-0.8-42.1 14.6-14.6 15.5-11.5 39.6-11.5 39.6 0 0 24-7.3 35.2-21.4 11.3-14.2 18.4-32.8 18.4-32.8z"/>
				</g>
				<g id="&lt;Group&gt;">
					<path id="&lt;Path&gt;" class="s0" d="m272.9 285.4c0 0-12.1 27.1-13.6 38.3-1.5 11.3 3 31.9 3 31.9 0 0 21.2-20.6 21.3-32.6 0.1-12-10.7-37.6-10.7-37.6z"/>
				</g>
				<g id="&lt;Group&gt;">
					<path id="&lt;Path&gt;" class="s0" d="m106.7 283c0 0-8.6 18.8-2.9 33.9 5.8 15.1 20.2 28.2 20.2 28.2 0 0 6.4-21.3 2.3-33.1-4.1-11.9-19.6-29-19.6-29z"/>
				</g>
				<g id="&lt;Group&gt;">
					<path id="&lt;Path&gt;" class="s0" d="m341.4 283c0 0-2.9-12.5 0-32.2 2.9-19.7 40-29.3 40-29.3 0 0-2.3 27.4-12.7 38.8-10.3 11.4-27.3 22.7-27.3 22.7z"/>
				</g>
				<g id="&lt;Group&gt;">
					<path id="&lt;Path&gt;" class="s0" d="m344.7 356.8c0 0 7.6-14.6 21.5-15.9 14-1.3 33.3-13.3 33.3-13.3 0 0-7 34.8-27.4 33.2-20.4-1.7-27.4-4-27.4-4z"/>
				</g>
				<g id="&lt;Group&gt;">
					<path id="&lt;Path&gt;" class="s0" d="m159.2 489.3c0 0-26.6-21.6-43.6-12.6-17.1 9-16.7 31.4-12.2 49.4 0 0 11.3-13.9 18.9-23.8 7.6-9.9 36.9-13 36.9-13z"/>
				</g>
				<g id="&lt;Group&gt;">
					<path id="&lt;Path&gt;" class="s0" d="m326.9 524.6c0 0-7.1-26 2.7-39.9 17.8-25.1 49.3-24.4 51.7-28.6 0 0-6.3 23.8-20.4 44.2-14.1 20.4-34 24.3-34 24.3z"/>
				</g>
				<g id="&lt;Group&gt;">
					<path id="&lt;Path&gt;" class="s0" d="m309.3 619.6c0 0-7.6 17-13.8 31.9-6.2 14.9 4.9 58.9 4.9 58.9 0 0 29.6-36.6 29.6-55.2 0-18.5-20.7-35.6-20.7-35.6z"/>
				</g>
				<g id="&lt;Group&gt;">
					<path id="&lt;Path&gt;" class="s0" d="m0.7 486.4c0 0 0 24.7 11.5 39.9 11.5 15.2 39.8 17.7 39.8 17.7 0 0 8.7-44.8-51.3-57.6z"/>
				</g>
				<g id="&lt;Group&gt;">
					<path id="&lt;Path&gt;" class="s0" d="m66.7 599.9c0 0 14.8 8.7 34.6 9 19.9 0.3 33.8 29.1 33.8 29.1 0 0-22.9 12-47.7 1.8-24.8-10.2-20.7-39.9-20.7-39.9z"/>
				</g>
				<g id="&lt;Group&gt;">
					<path id="&lt;Path&gt;" class="s1" d="m22.2 509.8c11.3 11.6 22.1 24.1 29.7 38.3 4.5 8.8 7.4 18.5 12.7 26.8 10.5 17 24.3 31.9 39.9 44.2-18.8-20.5-36.3-42.5-45.7-68.9-11.1-22.4-30.1-40.3-50.7-54.1q7.3 6.7 14.1 13.7z"/>
					<path id="&lt;Path&gt;" class="s1" d="m372 999.4c-10-4.4-15.8-13.7-23.2-21.1-16.3-15-38.8-21.5-60.5-22.9-16-12.5-33.7-22.5-48.2-36.7 17.4 5.4 35.9 4.9 53.5 1.1 17.8-2.5 36.5-1.2 53.2 6.1-17.9-12.6-41.2-15.6-62.6-13-2.3 0.1-5.8 0.5-8.1 0.5-17.6 0.3-35-4.5-50.7-12.1-5.7-7.7-10.3-16.3-14.1-25.1 15.7 7.4 33.4 14.4 51.1 12.1-21.8-3.8-40.3-17.9-57.7-30.8-10.9-57.1-14.3-116.3-2-173.4 4.6-21.4 11-42.9 15.9-64.9 2-7.2 1.6-15.4 7.6-20.7 9-10.5 23.1-12.8 36.3-11.5 10.8 0.8 22.8-4.1 30.8 5.6 22.9 26.5 16.3 66.4 13.2 98.7 8.2-33.2 17.5-83.5-14.1-107.2 61.9-18.5 3.3-54.5 73.8-113.7-23.3 16.7-41.9 41.8-44.6 71.1-1.2 7.3-1 15-4.5 21.6-6.5 8.2-16.8 12.9-26.9 15.3-21.7 5.5-47.9-5.7-66 11.5 8.8-51.5 4.7-104.9-14.3-153.7 11.8-17.9 30.9-29.3 48.1-41.7 9.8-6.7 19.7-13.6 29.1-21 0 0 11.7-3.8 11.7-3.8 28.5-9 62.8-7.4 86.1-28.8-25.4 16.8-57.2 13.7-85.4 22.3 20.1-16.2 32.5-39 38-63.9 7.6-23.9 17.7-47.5 33.2-67.4-61.6 76.4-11.6 90.7-116.2 157.6 10.4-25.9 13.8-53.9 16.8-81.4-5.5 29.6-9.5 61.3-25.4 87.4-13.9 9.8-28.4 19.9-38.5 33.9-13.4-36.5-34.7-71.4-37.1-110.9-2.6-29.8-0.4-51.4 18.2-76.1 27.8-32.5 30-48.3 39.5-88.2 8.1-25.9 20.3-51 37.9-71.8-29.2 28.4-43.1 67.7-51.8 106.6-8.1 31.6-38.6 51.3-45.4 83.3-1-37.5-3.3-75.2-9.1-112.4-8.3-43.5-8.2-89.5 7.8-131.2-14.2 32-18.3 68-15.5 102.7 4.8 38.2 10.2 76.4 10.7 115-15-41.6-31.9-32.5-52.2-57.2-16.2-36.1-27.9-74.5-45-110.4 15.9 36.7 26.6 75.5 42.7 111.9 24 29.1 38.1 14.1 54.8 66.1 0.7 20.7 0.7 50 2.4 70.5 2.3 19.7 9.2 38.6 16.6 56.9-12.5-15.2-31.8-21.4-50.6-23.9-6.7-20.6-15-43.2-21.7-63.8 6 20.6 11.4 41.6 15.5 62.7-33.2-5.2-63.5-14.7-73.6-50.2-11.1-26.5-24.2-52.4-39-77.1 13 25.6 25.1 51.8 35.2 78.6 9.9 38.6 43.6 49.4 79 54.7 0.8 0.9 2.2 1.2 3.4 0.6q0 0 0.1 0c-26.4 11.4-47.7 32.5-64.8 55.1 22.7-20 45.3-41.8 73.6-53.4 29.7 3.1 50.4 27.9 58.7 55.2 13.8 34.4 23 70.9 22.7 108.2-17.2-29.6-98.4-78.5-111.8-24.4 15.3-56.8 110.9 7.6 110.8 46-2.8 42.8-17.8 82.2-30.4 123-37.3-55.6-82.1-30.7-114.3-63.7 29.3 36.6 79.1 13.4 111.5 73.9-15.6 54.8-12.5 113-1.8 168.3-29.2 83.3-105.1 2.6-105.6 86.2 7.6-75.5 72.2 1.5 111.5-67.2 6.6 12.6-5.7 52-12.9 64.4-11.7 18.2-35 23.6-53.5 32.9-11.6 7.4-25.6 5.8-38.6 8.7-28.4 4.7-60.8 10.4-72.8 40.5 20-27.8 53.2-26.4 83.5-32.3-28.9 25.5-25 69.5-17.2 103.5-7.3-51.4-3.6-96.5 52.5-113.9-10.6 20.6-6.1 46 6.7 64.6 1.7 2.8 4.6 6.6 6.6 9.1 18.9 21.7 14.3 54 4 78.7 14.6-22.1 21.4-52.8 7.7-77-18.2-24.2-30.6-50.2-14.5-79.3 17.5-6.6 38-13.2 48.2-30.5 7.7-12.6 12.2-27.1 14.5-41.7 8.6 13.4 19.7 25.5 32.5 35 3.6 16.6 4.1 34.8-6.4 48.9-24.9 33-25.1 60.9 3.1 91.7-19.3-28-22.2-54.5 1.4-80.7 6.7 21.8 28.4 33.8 46.6 44.7 30.3 13.2 22.9 54.8 20.1 81.7 8.5-27.1 17.9-68.6-10.9-86.7-18.8-12.7-44.8-24.1-49.4-48.4 8.7-11.9 11.2-27.4 9.6-41.6 41.6 23.2 63 35.9 71.2 86.3-0.4-23-5.2-47.5-21.5-64.8 15 3.2 30.4 8.4 42.2 18.1 15.9 17.7 36.3 28.4 59.9 18.7-10.7 1.8-21.7 0.3-30.9-4.2z"/>
				</g>
			</g>
		</g>
	</g>
</svg>