<svg version="1.2" xmlns="http://www.w3.org/2000/svg" viewBox="0 0 1184 1748" width="1184" height="1748">
	<title>321353356351 2</title>
	<style>
		.s0 { fill: #66a400 } 
		.s1 { fill: #609100 } 
		.s2 { fill: #773d12 } 
		.s3 { fill: #66300c } 
		.s4 { fill: #7ab812 } 
		.s5 { fill: #d8eeec } 
		.s6 { fill: #f3deda } 
		.s7 { fill: #f2fca7 } 
		.s8 { fill: #89491d } 
	</style>
	<g id="321353356351 2">
		<g id="&lt;Group&gt;">
			<g id="-e- Stage7">
				<g id="&lt;Group&gt;">
					<path id="&lt;Path&gt;" class="s0" d="m1183 630.2c-3.1 72.8-83.3 88.2-83.3 88.2q0 0 0 0c0.8 1.1 36.6 54.4-4.6 111.7-41.6 58-124.9 20.8-124.9 20.8 0 0 4.6 64.2-47.8 70-52.4 5.7-75.6-47.5-75.6-47.5 0 0-27.7 53.2-50.8 0 0 0-60.2 78.9-109.5-10.3 0 0-38.6 85.1-106.4 51.9 0 0-61.7 88.6-134.2 44.7-72.5-43.9-64.8-102.3-64.8-102.3 0 0-13.8 31.7-33.9 5.7 0 0-10.8 98.9-112.6 37.3 0 0-83.2 25.7-89.4-57.3 0 0-104.8 17.2-63.2-104.6 0 0-60.2-50.7-3.1-84.7 0 0-86.4-8-49.3-98.1 0 0-81.8-65.8 29.3-134.3 0 0-63.3-86.9 26.2-122.4 0 0-3.1-69.4 81.7-54 0 0 4.6-38.5 38.5-38.5 0 0-29.2-94.1 71-111.1 0 0 10.8-60.1 70.9-38.5 0 0 58-94.1 106.1 4.6 0 0 48.1-50.9 83.6 4.6 0 0 41.6-74 101.8-64.7 60.1 9.2 78.6 81.7 78.6 81.7 0 0 57.1-44.7 69.4 23.1 0 0 109.5-57 117.2 74.1 0 0 74-21.6 55.5 81.7 0 0 57.1-20.5 91 12.9 33.9 33.3 15.4 99.8 15.4 99.8 0 0 57.1-4.8 41.6 61.5 0 0 81.8 27.8 23.2 109.5 0 0 55.5 11.7 52.4 84.5z"/>
				</g>
				<path id="&lt;Path&gt;" class="s1" d="m1095.1 830.1c-41.6 58-124.9 20.8-124.9 20.8 0 0 4.6 64.2-47.8 70-52.4 5.7-75.6-47.5-75.6-47.5 0 0-27.7 53.2-50.8 0 0 0-60.2 78.9-109.5-10.3 0 0-38.6 85.1-106.4 51.9 0 0-61.7 88.6-134.2 44.7-72.5-43.9-64.8-102.3-64.8-102.3 0 0-13.8 31.7-33.9 5.7 0 0-10.8 98.9-112.6 37.3 0 0-83.2 25.7-89.4-57.3 0 0-104.8 17.2-63.2-104.6 0 0 4.8 122 128.3 60.9 0 0 3 64.9 70.3 17.1 0 0 63.7 28.4 75-71.2 0 0 94.9 156 189 128.1 94.1-27.8 127.6-106.4 127.6-106.4 0 0 30.3 103.7 139.6-6.4 0 0 15.5 82.1 101.1 19.1 0 0 82.6 57.2 140.8 29.3 60.2-29 46.3-89.3 46-90.6 0.8 1.1 36.6 54.4-4.6 111.7z"/>
				<path id="&lt;Path&gt;" class="s2" d="m686.5 1383.1h-233.2c0 0 1.4-2.7 3.9-7.5 14-27.9 61.4-128.5 65.2-218.9 4.5-106.2 6.6-199.8 22.2-283.3 15.6-83.5 33.9-184 33.9-266 0-34.4-3.9-112.1-8-183.7-4.4-78-9.1-148.8-9.1-148.8 0 0 20.2 82 36.1 162.7 5.6 28.7 10.8 57.2 14.3 81.8 13.3 93.9 24.6 222.3 26.9 326.2 2.2 103.8 0.8 169.4 23.1 272.2 16 74.1 21.8 178.9 23.7 231.9 0.8 20.6 1 33.4 1 33.4z"/>
				<path id="&lt;Path&gt;" class="s2" d="m580.1 873.4l-27.8 124.8c-24.7-99.5-114.1-176.5-154.2-247.4-40.1-70.9-38.5-205.1-38.5-205.1 1.1 24.2 5.5 53.9 13.9 84.5 14.1 51.4 39.5 105.8 79.8 142.8 42.5 39.1 84.1 70.3 107.5 87 12 8.6 19.3 13.4 19.3 13.4z"/>
				<path id="&lt;Path&gt;" class="s2" d="m809.7 571.8c-4.6 51.4-18.2 117.6-56.9 146.6-55.5 41.7-110 120.3-128 147.5-4 6-6.2 9.6-6.2 9.6l-18.5-84.6c0 0 57.1-60.5 118.8-87.3 61.6-26.8 92.5-200.8 92.5-200.8 0 0 1.7 30.3-1.7 69z"/>
				<path id="&lt;Path&gt;" class="s2" d="m879.2 732.3c-0.4 0.9-13.1 31-42.6 71.9-17.8 24.8-41.9 53.7-73 82.5-65.2 60.2-108.6 137.5-124.5 168.3-4.3 8.5-6.6 13.5-6.6 13.5l-9.3-87.9c0 0 47.8-79.2 118.8-117.5 70.4-38 136.2-129.4 137.2-130.8z"/>
				<path id="&lt;Path&gt;" class="s2" d="m453.3 804.4c0 0-76.8 54.4-140-37.4 0 0 33.9 114.4 169.6 76.1z"/>
				<path id="&lt;Path&gt;" class="s2" d="m385.8 690.9c0 0-47.8-13.9-81.8-37.1-33.9-23.3-49.3-72.6-49.3-72.6 0 0 13.9 83.2 58.6 107.9 44.7 24.7 100.2 63.3 100.2 63.3z"/>
				<path id="&lt;Path&gt;" class="s3" d="m836.6 804.2c-17.8 24.8-41.9 53.7-73 82.5-65.2 60.2-108.6 137.5-124.5 168.3l4.3-63.5c0 0 38.5-53.5 91-97.6 52.5-44.1 100-94.5 100-94.5 0 0 0.8 1.8 2.2 4.8z"/>
				<path id="&lt;Path&gt;" class="s2" d="m705.9 367.9c-0.3 0.9-18.7 48.1-26.7 85.5q0 0 0 0.1c-1.9 9.1-3.2 17.6-3.5 24.7-1.6 36.7-61.7 126.1-61.7 126.1l-7.7-58.6c0 0 46.2-34.8 57-92.2 10.8-56.9 42.2-85.2 42.6-85.6z"/>
				<path id="&lt;Path&gt;" class="s2" d="m590.9 703.6l-10.8 87.3c0 0-40.1-72.5-67.9-124.1-27.7-51.7-29.3-174.2-29.3-174.2 0 0 2.6 21.4 8.2 48.6 6.8 32.8 18.1 74.1 35 96.7 20.7 27.7 42.8 47.9 55.1 58.1 6 5 9.7 7.6 9.7 7.6z"/>
				<path id="&lt;Path&gt;" class="s2" d="m783.6 641.7c0 0 55.5-17.3 95.6-60.5 0 0-59.5 82-103.3 98z"/>
				<path id="&lt;Path&gt;" class="s2" d="m695.7 545.7c0 0-16.9 67.2 0 92.2 17 25 41.7 65.7 41.7 65.7l-50.9 28.7c0 0-23.2-70.8-21.6-104 1.5-33.2 30.8-82.6 30.8-82.6z"/>
				<g id="&lt;Group&gt;">
					<path id="&lt;Path&gt;" class="s0" d="m172.1 666.8c0 0 45.9 33.5 82.6-5.6 0 0 75 25.4 44.2-56.9 0 0 41.1-4.8 43.9-52.8 0 0-11.3 64 70.7 64.3l-6.3-108.8c0 0-149.4-23.3-164.5-17.8-15.1 5.5-148.7 55.5-153.5 75.4-4.8 19.8 54.8 133.6 56.2 137 1.4 3.5 45.4 82.9 51.6 89.3 6.2 6.3 83.6 25.6 83.6 25.6 0 0 117.5 42 75-71.2l-82.7-23.8z"/>
				</g>
				<g id="&lt;Group&gt;">
					<path id="&lt;Path&gt;" class="s0" d="m438.7 492.6c0 0 15.8 46.6 61 34.3 45.2-12.4 33.6-125.4 33.6-125.4 0 0 65.8 27.4 66.8-55.6 0 0 12 26.8 39.4 17.2 0 0-2 96.6 87.1 62.3l6.8-118.5-211.1-56.9c0 0-95.2 58.9-100.7 78.1-5.5 19.2 17.1 164.5 17.1 164.5z"/>
				</g>
				<g id="&lt;Group&gt;">
					<path id="&lt;Path&gt;" class="s0" d="m664.8 557c0 0 6.2 38.4 55.6 19.2l52.8-57.6c0 0 19.8 58.3 87 6.2 0 0-62.4 104.9 52.8 124.1l-113 123.1c0 0 18.4 103.4 112.9 7.7l59-104.8c0 0-22.6-106.2-38.4-129.2-15.7-22.9-97.5-59-105.9-59.5-8.5-0.4-90.2 2.1-90.2 2.1z"/>
				</g>
				<path id="&lt;Path&gt;" class="s2" d="m959.1 1578.1c-36.4-6.6-47.5-20.2-87.1-5.4-12.5-20.5-28.7-31.7-53.4-30-9.3-26.7-25.1-51.8-48.1-68.9 24.5-9.6 48.9 9.1 64.6 26.8-15.6-23.8-44.9-46.8-74.4-33.4-18.9-10.3-39.8-17.4-55.4-32.9 27.7-5.8 57.3-11.7 85.2-5 16.7 4.7 28.1 18.9 37.3 32.9 9.6 14.1 19.6 32.5 38.5 35.1 10.7 21.5 28.7 39.1 49.8 50.4-19.1-11.9-35-29.2-44.4-49.8 24.1 1.3 47.9-5.2 70.6-12.3-25.8 5.6-54 12.7-79.8 4.8-13.1-5.6-19.1-19.7-26.1-31.4 4.3-2 8.8-3.7 13.4-5.1 1.1 0.3 2.4 0 3.1-0.9 12.4-3.4 25.4-4.5 38.2-3.3-12.3-2.9-25.2-3.6-37.9-2.1-1.7-16.3 8.1-31.9 22.6-39-16.5 5.9-28.4 22.1-28.3 39.8-5.1 0.9-10.2 2.1-15.1 3.7-40.5-77.8-127 0.7-148.1-101.9l-19.3 24.4c-1.4-3.7-2.7-7.4-3.7-11.1-1.3-5-5.2-8.5-9.9-9.6l-3-15.9-152.5 16.2-6.9 7.4c-5.5-5.2-14.3-4.8-19.3 0.9-20.2 22.8-43.4 43-69.5 58.8-7.2-1.6-14.5-2.8-21.8-3.6-5.6-9.7-14.8-17.9-25.9-20.7 9.3 3.7 16.4 11.4 20.6 20.2-11.2-0.8-22.6-0.4-33.7 1.6 17.4-0.6 34.7 2.7 51.1 8.2-18.5 10.5-39 18.1-59.3 24.5-16.3-3.5-32.7-5.8-49.3-6.8-21.1-12.4-43.9-24.3-68.5-26.6 18.7 4.3 35.1 15.1 50.5 26.2-18.2 0.3-37 3-52.9 12.3-30 12.8-64.4 4.2-93.7-6.9 22.5 10.8 47.4 18.7 72.7 18-13.6 16.2-25.2 34.3-32.8 54.1 10.1-20.7 24.7-39.2 41.5-54.9 7.9-0.9 15.6-4 22.9-7.1 26.9-8.9 56.1-4.1 83.3 1.2-33.5 13.2-70.4 33.5-80.4 70.8-25.2 7.3-48.9 25-57.3 50.5 9.8-22.6 32.1-37.4 55.5-42.9-3.2 17.5-0.4 35.6 4 52.6-14 17.2-24.1 37.6-29.6 59.1 6.6-19.8 17.3-38.2 31.1-53.8 8.2 28 20.6 54.6 35.1 79.8-23.3-50.7-60.4-129.9-8.6-174.2 3.5 18.5 7.9 37 16.7 53.8 9.3 16.5 15.2 34.9 18.1 53.7-1.2-20.6-6.5-40.9-15-59.6 20.4 3.5 42.4 12.3 52.5 31.5-9.4-21.2-32.7-31.8-54.2-36.6-5-16.1-7.3-33.1-8.5-49.9 24-15.6 52.1-23.2 79.8-30.7-21.5 27.3-27.6 44.1-2.9 72.3-19.5-27.3-15.6-41.9 6.7-65.2 10.1-15.2 29.3-15.7 44.6-23.7 18.9-8.5 37-18.8 53.8-31 62.9-30.7 91.2-6 59 37.3-19 4.2-37.9 8.5-56.1 15.6-20.2 9.8-41.6 17-63.6 22.2 17.9-3 35.8-6.6 53-12.5-6.4 13.2-16.7 24.6-29.9 31.2 15.7-6.1 28.5-18.6 36.1-33.6 16.7-6.1 34.5-8.7 52-11.4-12.5 16.6-30.7 26.1-47.2 37.9-14.1 10.5-27.2 23.1-36.3 38.3-20.8 1.7-43.1 12-51.4 32.2 9.7-15.6 28.3-22.6 46.1-22.2-4.6 10.1-7.5 20.7-8.9 31.5-16.8 3.5-36.4 8.2-46.6 23.2 11.3-12.9 29.8-15.1 45.9-16.5-1.1 11.9-0.2 23.7 0 35.6-16.9 2-33.7 6-49 13.6-19.6-8.6-42.4-7.7-62.4-0.5 18.7-5.2 39.5-4.9 57.3 3.3-10.4 5.6-17.8 14.6-24.8 23.8-12 14.4-25.3 27.7-40 39.4 50.2-35 48-67.9 118.7-72.5-3.7 51.5-45 91.7-88.7 114.3 34.5-15.5 66.4-40.1 84.6-73.8 9.9 17.9 17.9 36.8 24.1 56.3-5.1-21.1-12.1-41.7-21.5-61.3 24.9-53.4-7.2-96.8 50.7-142.4 2.1 10.6 4.9 21.2 8.7 31.3-9.4 19.9-12.7 42.1-13.1 63.9 1.8-20 6.1-40.2 15.3-58.3 3.4 9.6 9.7 17.8 14.3 26.7 9.4 24.7 4.5 52.5-0.9 77.7 26.5-89.4-7.6-74.1-14.9-148.2 11.5-8.2 24.7-13.6 35.9-22.2 4.2 21.5 11 44.2 27.1 60-14.7-18.7-18.2-43.5-19-66.6 18.5-16.3 32.6-37.1 43.7-58.9 28.2 25 33.4 72.2 0.9 96 38.3-23.6 33-76.8 3.6-105.5q0.8-1.7 1.6-3.4c2.5-8.4 53.1-31.4 74.3 16.6-7.7 15.7-14.5 32.5-16.3 50 4.2-14.9 12.3-28.4 21.1-41 7.8 15.4 14.9 31 20.3 47.3-16.3 8.8-32 20.2-42.2 36 12.3-12.7 28.6-20.3 45.2-25.5 3.6 13.7 5.2 29-2.5 41.6-12.6 3.4-25.2 6.9-37.7 10.7-13.7-9.1-30.5-12.9-46.8-11.7 14.3 0.6 28.5 5.2 40 13.7-28.9 8.4-55.3 23.4-81.4 37.9 36.9-18.5 75.8-31.8 116.7-38.2-27.5 30.4-72.2 44.7-91.3 82.8-21.9 13.5-40 34.6-46.4 59.8 7.2-22.6 24-41.1 44.1-53.2-1.5 6.3-0.6 13.1 1.5 19.1 2.3 27.8 5.5 55.9 13 82.8-4.4-22.7-5.3-45.8-5.7-68.9 23.3 31.1 58.2 50.9 91.9 68.9-17.6-10.1-34.5-21.5-50.2-34.2 26.3-7.2 55-6.5 80.7 3-26.4-11-56.4-12.8-84.1-5.7-56.5-47.3-51.8-72.7 10-109.8 6.4 27.7 24 53.2 49.2 66.8-14.2-10.1-25.4-24.1-32-40.2 14.5-0.9 29.6 0.7 42.9 7.3-13.3-8.3-29.2-11.4-44.7-11.8-3.3-9-5.4-18.5-6-28 54.7-33.6 72-58.9 50.3-122.5 15.2 4.7 26.9 17.2 33.2 31.7-4.3-19.6-18.3-36.9-37.4-43.7-5.5-14.6-11.7-28.7-18.4-42.6 6.7-2 14.8-1.4 23 6.5l-0.2-0.7c17.9 22.7 41.8 40.9 68.9 51 4.8 53.5-20.4 56.5-12.8 88.8-15.5 26.2-20.6 57.5-18.1 87.5-0.8-19.1 1.4-38.6 7.5-56.7 12.8 19.4 22.6 41.8 23.7 65.2-0.7-23.9-10.4-46.8-23.2-66.7 3-8.6 6.6-16.9 11.4-24.7 3.9 12.4 10.8 23.6 19.1 33.5-11.7-18.2-22.9-43.5-11-63.9 2-3.2 4.5-6.9 6.1-10.3 22.1 16.1 39.4 38.4 50.6 63.3-9.5-26.8-25.8-51.4-47.6-69.7 5.4-12.8 8.1-26.6 9.1-40.5 53 25.9 74.5 90.3 73.8 146.1-6.2 0.6-12.4 1.9-18.3 3.9-12.6-6.2-27.3-7.5-41-5.3 12.5-0.9 25.5 1 36.7 6.9-49.2 16.8-42 72.7-77.3 101.8 42.4-34.1 29.1-95.2 99.6-101.3-2.2 17.1 2.5 34.5 11.1 49.2-9.4 17.7-11.8 38.8-7.3 58.3-3.1-18.6 0-38.4 9.4-54.8 11 17.5 25.8 32.5 42.3 44.8-24.2-20.9-47.4-48.6-49.7-81.7 3-31.9 4-64.4-5.8-95.5 12.3-1.1 25.7 1.8 34.5 11-8.8 13.6-11.5 31-6.1 46.4-3.2-14.6 0.6-30.4 9.9-42.1 10.5 12.4 21 25 34.3 34.5-2.6 26.2 4.3 54 21.6 74.3-16.2-20.2-22.3-47.3-19.4-72.8 11.9 8.1 26.2 12.8 40.6 12.6-26-1.2-46.8-19.2-61.6-39.3 12.3-5.2 25.8-8.2 39.1-7 3.5 0.3 7.3 1.2 10.7 2.1 20.6 6.1 42.1 8.4 63.4 9.6q-15-1.5-29.8-4.2z"/>
				<path id="&lt;Path&gt;" class="s4" d="m1130.6 545.7c-11.3-77.2-65.2-24.9-65.2-24.9 10.7-88.3-67.3-47.8-67.3-47.8 45.9-209.6-118.9-162.2-118.9-162.2 18.9-108.6-73.9-73.4-73.9-73.4-9.2-126.9-104.2-67.3-104.2-67.3-93.5-148.4-177.3 6.1-177.3 6.1-88.7-78-103.1 41.3-103.1 41.3-52.6-39.7-56.4 32.5-56.4 32.5 0 0-51.6-43.2-109.6-11-58 32.1-29.1 164.8-29.1 164.8 0 0-64.3-51.6-120.9-11.6-56.6 40 0 153.5 0 153.5-70.4 39.1-25.8 108.1-25.8 108.1 0 0-86.4-8-49.3-98.1 0 0-81.8-65.8 29.3-134.3 0 0-63.3-86.9 26.2-122.4 0 0-3.1-69.4 81.7-54 0 0 4.6-38.5 38.5-38.5 0 0-29.2-94.1 71-111.1 0 0 10.8-60.1 70.9-38.5 0 0 58-94.1 106.1 4.6 0 0 48.1-50.9 83.6 4.6 0 0 41.6-74 101.8-64.7 60.1 9.2 78.6 81.7 78.6 81.7 0 0 57.1-44.7 69.4 23.1 0 0 109.5-57 117.2 74.1 0 0 74-21.6 55.5 81.7 0 0 57.1-20.5 91 12.9 33.9 33.3 15.4 99.8 15.4 99.8 0 0 57.1-4.8 41.6 61.5 0 0 81.8 27.8 23.2 109.5z"/>
				<path id="&lt;Path&gt;" class="s4" d="m171.2 465.4c0 0 7.7-59.3 45.2-75.9 37.4-16.7 84.9 18.5 84.9 18.5 0 0 9.9-60.4 67.3-13.8 0 0-52.8-20.6-64.3 34.4 0 0-81-68-133.1 36.8z"/>
				<path id="&lt;Path&gt;" class="s4" d="m342 278c0 0 0.9-29.1 17.5-36.8 16.7-7.6 43.5 8.8 43.5 8.8 0 0-4.2-36.3 10.5-40.9 14.7-4.6 49.9 21.4 49.9 21.4 0 0-57.1-32.8-49.9 36.8 0 0-46.1-40.6-71.5 10.7z"/>
				<path id="&lt;Path&gt;" class="s4" d="m609.5 183.9c0 0 53.7-44.4 96.5-26 42.7 18.3 37.4 81.8 37.4 81.8 0 0 57.3-27.5 57.3 56.6 0 0-19.1-60.4-73.4-35.9 0 0 22.2-119.4-117.8-76.5z"/>
				<path id="&lt;Path&gt;" class="s4" d="m945.3 465.4c0 0 35.2-19.9 62.7-4.6 27.6 15.3 16.8 68.2 16.8 68.2 0 0-3-69-79.5-63.6z"/>
				<path id="&lt;Path&gt;" class="s4" d="m109.8 602.5c0 0-24-24.9-14.3-56.8 9.7-31.9 61.2-35 61.2-35 0 0-64.8 22-46.9 91.8z"/>
				<path id="&lt;Path&gt;" class="s1" d="m254.7 661.2c0 0 35.3 13.5 49.3-7.4 14.1-20.9 0-51.3 0-51.3 0 0 28.2 15.4 33.4-27.6 0 0 22 58.2 72.5 29.4 0 0-53.6 11-72.7-66.3 0 0-7.6 62.7-43.6 49 0 0 14.7 69.6-38.9 74.2z"/>
				<path id="&lt;Path&gt;" class="s1" d="m449.1 510.7c0 0 10.5 22.9 39.6 18.3 29-4.7 40.5-42.9 40.5-42.9 0 0-41.7 48.6-80.1 24.6z"/>
				<path id="&lt;Path&gt;" class="s1" d="m523.8 400.3c0 0 63.5 36.1 85.7-32.4 0 0 23 39.3 62.7 11.8 0 0-45.1 7.6-62.7-47.4 0 0-22.9 80.3-85.7 68z"/>
				<path id="&lt;Path&gt;" class="s1" d="m664.8 557c0 0 6.6 50.5 55.6 19.2 0 0-45.3 1.8-55.6-19.2z"/>
				<path id="&lt;Path&gt;" class="s1" d="m651.2 409.8c0 0 5 20.4 25.6 26.5 20.7 6.1 49.8-10.9 49.8-10.9 0 0-46 6.9-75.4-15.6z"/>
				<path id="&lt;Path&gt;" class="s1" d="m770.1 522c0 0 16.1 52 77.3 19.8 0 0-42.7 82.7 31.8 93.4 0 0-46.3-26.9-13.5-105.6 0 0-62.8 26-95.6-7.6z"/>
				<g id="&lt;Group&gt;">
					<path id="&lt;Path&gt;" class="s5" d="m288.3 267.7c0 0-4.3-15 6.4-17.5 10.7-2.5 13.2 15.7 13.2 15.7 0 0 9.9-5.7 17-1.8 7.2 3.9-0.3 15.3-8.1 17.1 0 0 11.3 8.9 6.4 17.5-5 8.5-20-5.4-20-5.4 0 0-1.4 14.3-12.8 12.5-11.4-1.8-3-20-3-20 0 0-16.6 1.8-16.6-10.6 0-12.5 17.5-7.5 17.5-7.5z"/>
					<g id="&lt;Group&gt;">
						<path id="&lt;Path&gt;" class="s6" d="m293.9 272.9c0 0-2.2-7.4 3.1-8.6 5.3-1.3 6.5 7.7 6.5 7.7 0 0 4.9-2.8 8.5-0.9 3.5 2-0.2 7.6-4.1 8.5 0 0 5.6 4.4 3.2 8.6-2.5 4.2-9.9-2.7-9.9-2.7 0 0-0.7 7.1-6.3 6.2-5.6-0.9-1.5-9.9-1.5-9.9 0 0-8.2 0.9-8.2-5.2 0-6.2 8.7-3.7 8.7-3.7z"/>
					</g>
					<path id="&lt;Path&gt;" class="s7" d="m303 278c0 2-1.7 3.6-3.7 3.6-2 0-3.7-1.6-3.7-3.6 0-2.1 1.7-3.7 3.7-3.7 2 0 3.7 1.6 3.7 3.7z"/>
				</g>
				<g id="&lt;Group&gt;">
					<path id="&lt;Path&gt;" class="s5" d="m974.5 381c0 0-6-20.9 8.9-24.4 15-3.5 18.5 21.9 18.5 21.9 0 0 13.9-7.9 23.9-2.4 9.9 5.4-0.5 21.4-11.5 23.9 0 0 16 12.4 9 24.4-7 11.9-27.9-7.5-27.9-7.5 0 0-2 19.9-17.9 17.4-16-2.4-4.2-27.9-4.2-27.9 0 0-23.2 2.5-23.2-14.9 0-17.4 24.4-10.5 24.4-10.5z"/>
					<g id="&lt;Group&gt;">
						<path id="&lt;Path&gt;" class="s6" d="m982.3 388.3c0 0-3-10.3 4.4-12 7.4-1.7 9.1 10.8 9.1 10.8 0 0 6.9-3.9 11.8-1.2 4.9 2.7-0.2 10.5-5.6 11.8 0 0 7.8 6.1 4.4 12-3.4 5.9-13.8-3.7-13.8-3.7 0 0-1 9.9-8.8 8.6-7.9-1.2-2.1-13.7-2.1-13.7 0 0-11.5 1.2-11.5-7.4 0-8.6 12.1-5.2 12.1-5.2z"/>
					</g>
					<path id="&lt;Path&gt;" class="s7" d="m995.1 395.4c0 2.9-2.3 5.2-5.2 5.2-2.8 0-5.1-2.3-5.1-5.2 0-2.8 2.3-5.1 5.1-5.1 2.9 0 5.2 2.3 5.2 5.1z"/>
				</g>
				<g id="&lt;Group&gt;">
					<path id="&lt;Path&gt;" class="s5" d="m836.9 201.7c0 0 15.6-0.7 15.5 10.3 0 11-18.3 9.2-18.3 9.2 0 0 3.2 11-2.2 17-5.5 6-14.8-3.9-14.7-11.9 0 0-11.3 9-18.5 2.1-7.2-6.8 9.8-18.1 9.8-18.1 0 0-13.5-4.7-9.1-15.4 4.4-10.7 20.1 1.8 20.1 1.8 0 0 2.1-16.6 14.2-13.7 12.1 2.9 3.2 18.7 3.2 18.7z"/>
					<g id="&lt;Group&gt;">
						<path id="&lt;Path&gt;" class="s6" d="m830.6 205.9c0 0 7.6-0.3 7.6 5.1 0 5.4-9 4.5-9 4.5 0 0 1.6 5.5-1.1 8.4-2.7 3-7.3-1.9-7.3-5.8 0 0-5.6 4.4-9.1 1-3.5-3.3 4.8-8.9 4.8-8.9 0 0-6.6-2.4-4.5-7.6 2.2-5.3 10 0.8 10 0.8 0 0 1-8.1 7-6.7 6 1.4 1.6 9.2 1.6 9.2z"/>
					</g>
					<path id="&lt;Path&gt;" class="s7" d="m823.5 213.6c-2-0.5-3.2-2.4-2.7-4.4 0.5-2 2.4-3.2 4.4-2.7 2 0.4 3.2 2.4 2.7 4.4-0.4 2-2.4 3.2-4.4 2.7z"/>
				</g>
				<g id="&lt;Group&gt;">
					<path id="&lt;Path&gt;" class="s5" d="m536.4 130.4c0 0 20.2-12.7 28.5 1.9 8.3 14.7-17.4 26.2-17.4 26.2 0 0 12.7 12.2 10 24.4-2.7 12.2-22.7 6.1-28.7-4.7 0 0-8.2 20.6-22.9 17-14.7-3.7-0.7-31.7-0.7-31.7 0 0-21.6 4.1-23.9-13.5-2.3-17.5 28-13 28-13 0 0-9.7-23.7 8.6-29 18.3-5.4 18.5 22.4 18.5 22.4z"/>
					<g id="&lt;Group&gt;">
						<path id="&lt;Path&gt;" class="s6" d="m531.2 140.9c0 0 9.9-6.3 14 0.9 4.1 7.3-8.5 13-8.5 13 0 0 6.2 6 4.9 12-1.3 6-11.2 3-14.2-2.3 0 0-4 10.2-11.3 8.4-7.3-1.8-0.4-15.7-0.4-15.7 0 0-10.6 2-11.7-6.6-1.2-8.7 13.8-6.4 13.8-6.4 0 0-4.8-11.7 4.2-14.4 9.1-2.6 9.2 11.1 9.2 11.1z"/>
					</g>
					<path id="&lt;Path&gt;" class="s7" d="m527.7 156.5c-3 0.9-6.2-0.8-7-3.8-0.9-3 0.8-6.1 3.8-7 3-0.9 6.1 0.8 7 3.8 0.9 3-0.9 6.2-3.8 7z"/>
				</g>
				<g id="&lt;Group&gt;">
					<path id="&lt;Path&gt;" class="s5" d="m930.6 787c0 0 7.2 22.7-9.1 27-16.3 4.3-20.9-23.5-20.9-23.5 0 0-15 9.2-26.1 3.5-11.1-5.8-0.1-23.5 11.8-26.6 0 0-17.8-13.2-10.5-26.5 7.3-13.3 30.8 7.4 30.8 7.4 0 0 1.6-21.9 19.1-19.7 17.6 2.3 5.4 30.5 5.4 30.5 0 0 25.4-3.4 25.9 15.7 0.5 19.1-26.4 12.2-26.4 12.2z"/>
					<g id="&lt;Group&gt;">
						<path id="&lt;Path&gt;" class="s6" d="m921.8 779.2c0 0 3.5 11.3-4.5 13.4-8 2.1-10.3-11.6-10.3-11.6 0 0-7.4 4.5-12.9 1.7-5.5-2.8 0-11.6 5.9-13.1 0 0-8.9-6.5-5.3-13.1 3.6-6.6 15.2 3.6 15.2 3.6 0 0 0.8-10.8 9.5-9.7 8.7 1.1 2.7 15.1 2.7 15.1 0 0 12.5-1.7 12.8 7.7 0.2 9.5-13.1 6-13.1 6z"/>
					</g>
					<path id="&lt;Path&gt;" class="s7" d="m907.6 771.8c-0.1-3.1 2.4-5.7 5.5-5.8 3.1 0 5.7 2.4 5.8 5.5 0 3.1-2.4 5.7-5.5 5.8-3.1 0.1-5.7-2.4-5.8-5.5z"/>
				</g>
				<g id="&lt;Group&gt;">
					<path id="&lt;Path&gt;" class="s5" d="m156.7 451.6c0 0 18.7-5.4 21.8 8 3.1 13.3-19.5 16.4-19.5 16.4 0 0 7.1 12.5 2.2 21.4-4.9 8.9-19.1-0.5-21.4-10.3 0 0-11.1 14.3-21.8 8.1-10.6-6.3 6.7-25 6.7-25 0 0-17.8-1.7-15.6-16 2.3-14.2 25-3.7 25-3.7 0 0-2.3-20.7 13.3-20.7 15.6 0 9.3 21.8 9.3 21.8z"/>
					<g id="&lt;Group&gt;">
						<path id="&lt;Path&gt;" class="s6" d="m150.2 458.5c0 0 9.3-2.6 10.8 4 1.5 6.6-9.7 8.1-9.7 8.1 0 0 3.5 6.2 1.1 10.6-2.4 4.4-9.4-0.3-10.5-5.1 0 0-5.5 7-10.8 4-5.2-3.1 3.3-12.3 3.3-12.3 0 0-8.8-0.9-7.7-7.9 1.1-7.1 12.3-1.9 12.3-1.9 0 0-1.1-10.2 6.6-10.2 7.7 0 4.6 10.7 4.6 10.7z"/>
					</g>
					<path id="&lt;Path&gt;" class="s7" d="m143.9 469.9c-2.5 0-4.6-2-4.6-4.5 0-2.6 2.1-4.6 4.6-4.6 2.5 0 4.6 2 4.6 4.6 0 2.5-2.1 4.5-4.6 4.5z"/>
				</g>
				<g id="&lt;Group&gt;">
					<path id="&lt;Path&gt;" class="s5" d="m696.7 241c0 0 18.7-5.3 21.8 8 3.1 13.4-19.6 16.5-19.6 16.5 0 0 7.1 12.4 2.2 21.3-4.9 8.9-19.1-0.4-21.3-10.2 0 0-11.1 14.2-21.8 8-10.7-6.2 6.7-24.9 6.7-24.9 0 0-17.8-1.8-15.6-16 2.2-14.2 24.9-3.7 24.9-3.7 0 0-2.2-20.8 13.3-20.8 15.6 0 9.4 21.8 9.4 21.8z"/>
					<g id="&lt;Group&gt;">
						<path id="&lt;Path&gt;" class="s6" d="m690.2 248c0 0 9.2-2.6 10.7 4 1.6 6.5-9.6 8.1-9.6 8.1 0 0 3.5 6.1 1.1 10.5-2.4 4.4-9.5-0.2-10.6-5 0 0-5.5 7-10.7 3.9-5.3-3.1 3.3-12.3 3.3-12.3 0 0-8.8-0.9-7.7-7.9 1.1-7 12.3-1.8 12.3-1.8 0 0-1.1-10.3 6.6-10.3 7.7 0 4.6 10.8 4.6 10.8z"/>
					</g>
					<path id="&lt;Path&gt;" class="s7" d="m683.8 259.4c-2.5 0-4.6-2.1-4.6-4.6 0-2.5 2.1-4.6 4.6-4.6 2.6 0 4.6 2.1 4.6 4.6 0 2.5-2 4.6-4.6 4.6z"/>
				</g>
				<g id="&lt;Group&gt;">
					<path id="&lt;Path&gt;" class="s5" d="m476.3 357.2c0 0 18.7-5.3 21.8 8 3.1 13.4-19.6 16.5-19.6 16.5 0 0 7.1 12.5 2.2 21.4-4.9 8.9-19.1-0.5-21.3-10.3 0 0-11.2 14.3-21.8 8-10.7-6.2 6.6-24.9 6.6-24.9 0 0-17.7-1.8-15.5-16 2.2-14.2 24.9-3.7 24.9-3.7 0 0-2.2-20.8 13.3-20.8 15.6 0 9.4 21.8 9.4 21.8z"/>
					<g id="&lt;Group&gt;">
						<path id="&lt;Path&gt;" class="s6" d="m469.8 364.2c0 0 9.2-2.6 10.7 4 1.6 6.6-9.6 8.1-9.6 8.1 0 0 3.5 6.2 1.1 10.5-2.5 4.4-9.5-0.2-10.6-5 0 0-5.5 7-10.7 3.9-5.3-3 3.3-12.3 3.3-12.3 0 0-8.8-0.8-7.7-7.9 1.1-7 12.3-1.8 12.3-1.8 0 0-1.1-10.2 6.6-10.2 7.6 0 4.6 10.7 4.6 10.7z"/>
					</g>
					<path id="&lt;Path&gt;" class="s7" d="m463.4 375.6c-2.5 0-4.6-2-4.6-4.6 0-2.5 2.1-4.5 4.6-4.5 2.6 0 4.6 2 4.6 4.5 0 2.6-2 4.6-4.6 4.6z"/>
				</g>
				<g id="&lt;Group&gt;">
					<path id="&lt;Path&gt;" class="s5" d="m222.4 723c0 0 12.5-3.6 14.6 5.4 2.1 8.9-13.1 11-13.1 11 0 0 4.8 8.4 1.5 14.4-3.3 5.9-12.9-0.3-14.4-6.9 0 0-7.4 9.6-14.6 5.4-7.2-4.2 4.5-16.7 4.5-16.7 0 0-12-1.2-10.5-10.8 1.5-9.5 16.8-2.5 16.8-2.5 0 0-1.5-13.9 8.9-13.9 10.5 0 6.3 14.6 6.3 14.6z"/>
					<g id="&lt;Group&gt;">
						<path id="&lt;Path&gt;" class="s6" d="m218 727.7c0 0 6.2-1.8 7.2 2.7 1.1 4.4-6.4 5.4-6.4 5.4 0 0 2.3 4.1 0.7 7.1-1.6 2.9-6.3-0.2-7.1-3.4 0 0-3.7 4.7-7.2 2.7-3.5-2.1 2.2-8.3 2.2-8.3 0 0-5.9-0.6-5.2-5.3 0.8-4.7 8.3-1.2 8.3-1.2 0 0-0.7-6.9 4.4-6.9 5.2 0 3.1 7.2 3.1 7.2z"/>
					</g>
					<path id="&lt;Path&gt;" class="s7" d="m213.8 735.4c-1.7 0-3.1-1.4-3.1-3.1 0-1.7 1.4-3.1 3.1-3.1 1.7 0 3 1.4 3 3.1 0 1.7-1.3 3.1-3 3.1z"/>
				</g>
				<g id="&lt;Group&gt;">
					<path id="&lt;Path&gt;" class="s5" d="m746 473.7c0 0 12.5-3.6 14.6 5.3 2.1 9-13.1 11.1-13.1 11.1 0 0 4.8 8.3 1.5 14.3-3.3 6-12.9-0.3-14.4-6.8 0 0-7.4 9.5-14.6 5.3-7.2-4.2 4.5-16.7 4.5-16.7 0 0-12-1.2-10.5-10.7 1.5-9.6 16.8-2.5 16.8-2.5 0 0-1.5-14 8.9-14 10.5 0 6.3 14.7 6.3 14.7z"/>
					<g id="&lt;Group&gt;">
						<path id="&lt;Path&gt;" class="s6" d="m741.6 478.4c0 0 6.2-1.8 7.2 2.6 1.1 4.4-6.4 5.5-6.4 5.5 0 0 2.3 4.1 0.7 7-1.6 3-6.4-0.1-7.1-3.4 0 0-3.7 4.8-7.2 2.7-3.5-2.1 2.2-8.3 2.2-8.3 0 0-5.9-0.5-5.2-5.3 0.8-4.7 8.3-1.2 8.3-1.2 0 0-0.7-6.9 4.4-6.9 5.2 0 3.1 7.3 3.1 7.3z"/>
					</g>
					<path id="&lt;Path&gt;" class="s7" d="m737.4 486c-1.7 0-3.1-1.4-3.1-3.1 0-1.7 1.4-3.1 3.1-3.1 1.7 0 3 1.4 3 3.1 0 1.7-1.3 3.1-3 3.1z"/>
				</g>
				<g id="&lt;Group&gt;">
					<path id="&lt;Path&gt;" class="s5" d="m345 481.7c0 0 12.6-3.5 14.7 5.4 2.1 9-13.2 11.1-13.2 11.1 0 0 4.8 8.3 1.5 14.3-3.3 6-12.8-0.3-14.3-6.9 0 0-7.5 9.6-14.6 5.4-7.2-4.2 4.4-16.7 4.4-16.7 0 0-11.9-1.2-10.4-10.8 1.5-9.5 16.7-2.5 16.7-2.5 0 0-1.5-13.9 9-13.9 10.4 0 6.2 14.6 6.2 14.6z"/>
					<g id="&lt;Group&gt;">
						<path id="&lt;Path&gt;" class="s6" d="m340.7 486.4c0 0 6.2-1.7 7.2 2.7 1 4.4-6.5 5.4-6.5 5.4 0 0 2.4 4.2 0.7 7.1-1.6 3-6.3-0.1-7-3.4 0 0-3.7 4.7-7.3 2.7-3.5-2.1 2.3-8.3 2.3-8.3 0 0-5.9-0.6-5.2-5.3 0.7-4.7 8.3-1.2 8.3-1.2 0 0-0.8-6.9 4.4-6.9 5.1 0 3.1 7.2 3.1 7.2z"/>
					</g>
					<path id="&lt;Path&gt;" class="s7" d="m336.4 494.1c-1.7 0-3.1-1.4-3.1-3.1 0-1.7 1.4-3.1 3.1-3.1 1.7 0 3.1 1.4 3.1 3.1 0 1.7-1.4 3.1-3.1 3.1z"/>
				</g>
				<g id="&lt;Group&gt;">
					<path id="&lt;Path&gt;" class="s5" d="m947.7 523.4c0 0 8.4-2.4 9.8 3.6 1.4 6-8.8 7.4-8.8 7.4 0 0 3.2 5.6 1 9.6-2.2 4-8.7-0.2-9.7-4.6 0 0-5 6.4-9.8 3.6-4.8-2.8 3-11.2 3-11.2 0 0-8-0.8-7-7.2 1-6.4 11.2-1.7 11.2-1.7 0 0-1-9.4 6-9.4 7.1 0 4.3 9.9 4.3 9.9z"/>
					<g id="&lt;Group&gt;">
						<path id="&lt;Path&gt;" class="s6" d="m944.7 526.5c0 0 4.2-1.2 4.9 1.8 0.7 3-4.4 3.7-4.4 3.7 0 0 1.6 2.7 0.5 4.7-1.1 2-4.2-0.1-4.7-2.3 0 0-2.5 3.2-4.9 1.8-2.4-1.4 1.5-5.5 1.5-5.5 0 0-4-0.4-3.5-3.6 0.5-3.2 5.6-0.8 5.6-0.8 0 0-0.5-4.6 2.9-4.6 3.5 0 2.1 4.8 2.1 4.8z"/>
					</g>
					<path id="&lt;Path&gt;" class="s7" d="m941.9 531.7c-1.2 0-2.1-1-2.1-2.1 0-1.2 0.9-2.1 2.1-2.1 1.1 0 2 0.9 2 2.1 0 1.1-0.9 2.1-2 2.1z"/>
				</g>
				<path id="&lt;Path&gt;" class="s3" d="m809.7 571.7q0 0 0 0.1c-4.6 51.4-18.2 117.6-56.9 146.6-55.5 41.7-110 120.3-128 147.5 4.1-20.8 12.7-56.9 12.7-56.9 0 0 48-46.9 82.9-74.4 34.9-27.5 66-74.7 74.2-104.4 8.1-29.7 15.1-58.5 15.1-58.5z"/>
				<g id="&lt;Group&gt;">
					<path id="&lt;Path&gt;" class="s5" d="m439.2 565.5c0 0 8.4-2.4 9.8 3.6 1.4 6-8.8 7.5-8.8 7.5 0 0 3.2 5.6 1 9.6-2.2 4-8.6-0.2-9.6-4.6 0 0-5 6.4-9.8 3.6-4.8-2.8 3-11.3 3-11.3 0 0-8-0.8-7-7.2 1-6.4 11.2-1.7 11.2-1.7 0 0-1-9.3 6-9.3 7 0 4.2 9.8 4.2 9.8z"/>
					<g id="&lt;Group&gt;">
						<path id="&lt;Path&gt;" class="s6" d="m436.3 568.7c0 0 4.1-1.2 4.8 1.8 0.7 2.9-4.3 3.6-4.3 3.6 0 0 1.6 2.8 0.5 4.8-1.1 1.9-4.3-0.1-4.8-2.3 0 0-2.5 3.2-4.8 1.8-2.4-1.4 1.5-5.6 1.5-5.6 0 0-4-0.4-3.5-3.5 0.5-3.2 5.5-0.9 5.5-0.9 0 0-0.5-4.6 3-4.6 3.5 0 2.1 4.9 2.1 4.9z"/>
					</g>
					<path id="&lt;Path&gt;" class="s7" d="m433.4 573.8c-1.1 0-2-0.9-2-2.1 0-1.1 0.9-2 2-2 1.2 0 2.1 0.9 2.1 2 0 1.2-0.9 2.1-2.1 2.1z"/>
				</g>
				<g id="&lt;Group&gt;">
					<path id="&lt;Path&gt;" class="s5" d="m347.8 137.3c0 0 8.4-2.4 9.8 3.6 1.4 6-8.8 7.4-8.8 7.4 0 0 3.2 5.6 1 9.6-2.2 4.1-8.6-0.2-9.6-4.6 0 0-5 6.5-9.8 3.6-4.9-2.8 3-11.2 3-11.2 0 0-8.1-0.8-7.1-7.2 1-6.4 11.3-1.7 11.3-1.7 0 0-1-9.3 6-9.3 7 0 4.2 9.8 4.2 9.8z"/>
					<g id="&lt;Group&gt;">
						<path id="&lt;Path&gt;" class="s6" d="m344.9 140.4c0 0 4.1-1.1 4.8 1.8 0.7 3-4.3 3.7-4.3 3.7 0 0 1.5 2.8 0.5 4.7-1.1 2-4.3-0.1-4.8-2.2 0 0-2.5 3.1-4.8 1.7-2.4-1.3 1.4-5.5 1.4-5.5 0 0-3.9-0.4-3.4-3.6 0.5-3.1 5.5-0.8 5.5-0.8 0 0-0.5-4.6 3-4.6 3.4 0 2.1 4.8 2.1 4.8z"/>
					</g>
					<path id="&lt;Path&gt;" class="s7" d="m342 145.6c-1.1 0-2.1-0.9-2.1-2.1 0-1.1 1-2.1 2.1-2.1 1.1 0 2.1 1 2.1 2.1 0 1.2-1 2.1-2.1 2.1z"/>
				</g>
				<g id="&lt;Group&gt;">
					<path id="&lt;Path&gt;" class="s5" d="m575.7 285.6c0 0 8.4-2.5 9.8 3.6 1.4 6-8.8 7.4-8.8 7.4 0 0 3.2 5.6 1 9.6-2.2 4-8.6-0.2-9.6-4.6 0 0-5 6.4-9.9 3.6-4.8-2.8 3-11.2 3-11.2 0 0-8-0.8-7-7.2 1-6.5 11.3-1.7 11.3-1.7 0 0-1-9.4 6-9.4 7 0 4.2 9.9 4.2 9.9z"/>
					<g id="&lt;Group&gt;">
						<path id="&lt;Path&gt;" class="s6" d="m572.8 288.7c0 0 4.1-1.2 4.8 1.8 0.7 3-4.4 3.6-4.4 3.6 0 0 1.6 2.8 0.5 4.8-1 2-4.2-0.1-4.7-2.3 0 0-2.5 3.2-4.9 1.8-2.3-1.4 1.5-5.5 1.5-5.5 0 0-3.9-0.4-3.4-3.6 0.5-3.2 5.5-0.8 5.5-0.8 0 0-0.5-4.6 3-4.6 3.4 0 2.1 4.8 2.1 4.8z"/>
					</g>
					<path id="&lt;Path&gt;" class="s7" d="m569.9 293.8c-1.2 0-2.1-0.9-2.1-2 0-1.2 0.9-2.1 2.1-2.1 1.1 0 2.1 0.9 2.1 2.1 0 1.1-1 2-2.1 2z"/>
				</g>
				<g id="&lt;Group&gt;">
					<path id="&lt;Path&gt;" class="s5" d="m1095.2 590.2c0 0 8.4-2.4 9.8 3.6 1.4 6-8.8 7.4-8.8 7.4 0 0 3.2 5.6 1 9.6-2.2 4-8.7-0.2-9.7-4.6 0 0-5 6.4-9.8 3.6-4.8-2.8 3-11.2 3-11.2 0 0-8-0.8-7-7.2 1-6.4 11.2-1.7 11.2-1.7 0 0-1-9.3 6.1-9.3 7 0 4.2 9.8 4.2 9.8z"/>
					<g id="&lt;Group&gt;">
						<path id="&lt;Path&gt;" class="s6" d="m1092.2 593.3c0 0 4.2-1.2 4.9 1.8 0.7 3-4.4 3.7-4.4 3.7 0 0 1.6 2.7 0.5 4.7-1.1 2-4.2-0.1-4.7-2.3 0 0-2.5 3.2-4.9 1.8-2.4-1.4 1.5-5.5 1.5-5.5 0 0-4-0.4-3.5-3.6 0.5-3.1 5.6-0.8 5.6-0.8 0 0-0.5-4.6 3-4.6 3.4 0 2 4.8 2 4.8z"/>
					</g>
					<path id="&lt;Path&gt;" class="s7" d="m1089.4 598.5c-1.2 0-2.1-1-2.1-2.1 0-1.1 0.9-2.1 2.1-2.1 1.1 0 2 1 2 2.1 0 1.1-0.9 2.1-2 2.1z"/>
				</g>
				<g id="&lt;Group&gt;">
					<path id="&lt;Path&gt;" class="s5" d="m172 598.1c0 0 8.4-2.4 9.8 3.6 1.4 6-8.8 7.4-8.8 7.4 0 0 3.2 5.6 1 9.6-2.2 4.1-8.6-0.2-9.6-4.6 0 0-5 6.5-9.8 3.6-4.8-2.8 3-11.2 3-11.2 0 0-8-0.8-7-7.2 1-6.4 11.2-1.7 11.2-1.7 0 0-1-9.3 6-9.3 7 0 4.2 9.8 4.2 9.8z"/>
					<g id="&lt;Group&gt;">
						<path id="&lt;Path&gt;" class="s6" d="m169.1 601.2c0 0 4.1-1.1 4.8 1.8 0.7 3-4.3 3.7-4.3 3.7 0 0 1.6 2.8 0.5 4.7-1.1 2-4.3-0.1-4.8-2.2 0 0-2.5 3.1-4.8 1.7-2.4-1.3 1.5-5.5 1.5-5.5 0 0-4-0.4-3.5-3.6 0.5-3.1 5.5-0.8 5.5-0.8 0 0-0.5-4.6 3-4.6 3.5 0 2.1 4.8 2.1 4.8z"/>
					</g>
					<path id="&lt;Path&gt;" class="s7" d="m166.2 606.4c-1.1 0-2-0.9-2-2.1 0-1.1 0.9-2.1 2-2.1 1.2 0 2.1 1 2.1 2.1 0 1.2-0.9 2.1-2.1 2.1z"/>
				</g>
				<g id="&lt;Group&gt;">
					<path id="&lt;Path&gt;" class="s5" d="m836.2 367.3c0 0 12.5-3.6 14.6 5.4 2.1 8.9-13.1 11-13.1 11 0 0 4.8 8.4 1.5 14.3-3.3 6-12.9-0.3-14.4-6.8 0 0-7.4 9.5-14.6 5.3-7.2-4.1 4.5-16.7 4.5-16.7 0 0-12-1.2-10.5-10.7 1.5-9.6 16.8-2.5 16.8-2.5 0 0-1.5-14 8.9-14 10.5 0 6.3 14.7 6.3 14.7z"/>
					<g id="&lt;Group&gt;">
						<path id="&lt;Path&gt;" class="s6" d="m831.8 372c0 0 6.2-1.8 7.2 2.6 1.1 4.4-6.4 5.5-6.4 5.5 0 0 2.3 4.1 0.7 7.1-1.6 2.9-6.3-0.2-7.1-3.4 0 0-3.7 4.7-7.2 2.6-3.5-2.1 2.2-8.2 2.2-8.2 0 0-5.9-0.6-5.1-5.3 0.7-4.8 8.2-1.3 8.2-1.3 0 0-0.7-6.9 4.4-6.9 5.2 0 3.1 7.3 3.1 7.3z"/>
					</g>
					<path id="&lt;Path&gt;" class="s7" d="m827.6 379.6c-1.7 0-3.1-1.4-3.1-3.1 0-1.7 1.4-3 3.1-3 1.7 0 3 1.3 3 3 0 1.7-1.3 3.1-3 3.1z"/>
				</g>
				<g id="&lt;Group&gt;">
					<path id="&lt;Path&gt;" class="s5" d="m993.9 660.5c0 0 0.2 13.1-9 12.7-9.2-0.3-7.2-15.5-7.2-15.5 0 0-9.3 2.4-14.2-2.3-4.9-4.8 3.6-12.4 10.3-12.1 0 0-7.2-9.7-1.3-15.5 5.9-5.8 14.9 8.7 14.9 8.7 0 0 4.3-11.2 13.2-7.3 8.8 4-2 16.8-2 16.8 0 0 13.8 2.2 11.1 12.3-2.7 10.1-15.8 2.2-15.8 2.2z"/>
					<g id="&lt;Group&gt;">
						<path id="&lt;Path&gt;" class="s6" d="m990.5 655.1c0 0 0.1 6.4-4.4 6.3-4.5-0.2-3.6-7.7-3.6-7.7 0 0-4.6 1.2-7-1.2-2.4-2.3 1.8-6 5.1-5.9 0 0-3.6-4.8-0.6-7.7 2.9-2.9 7.3 4.3 7.3 4.3 0 0 2.2-5.5 6.5-3.6 4.4 2-1 8.3-1 8.3 0 0 6.9 1.1 5.5 6.1-1.3 5-7.8 1.1-7.8 1.1z"/>
					</g>
					<path id="&lt;Path&gt;" class="s7" d="m984.3 649c0.4-1.7 2.1-2.6 3.8-2.2 1.6 0.4 2.6 2.1 2.1 3.8-0.4 1.6-2.1 2.6-3.8 2.1-1.6-0.4-2.6-2.1-2.1-3.7z"/>
				</g>
				<path id="&lt;Path&gt;" class="s3" d="m685.5 1349.7l-1.2 0.5c-14.5-117.2-54.4-167.4-78-305.1-23.5-137.6-0.9-230.1 0-340.7 0.8-109.9-8.7-264.7-8.8-266.8 5.6 28.7 10.8 57.2 14.3 81.8 13.3 93.9 24.6 222.3 26.9 326.2 2.2 103.8 0.8 169.4 23.1 272.2 16 74.1 21.8 178.9 23.7 231.9z"/>
				<path id="&lt;Path&gt;" class="s3" d="m679.2 453.5c-1.9 9.1-3.2 17.6-3.5 24.7-1.6 36.7-61.7 126.1-61.7 126.1l4-37.1c0 0 17-19.7 33.2-47.8 15.7-27.2 27.3-63.7 28-65.9z"/>
				<path id="&lt;Path&gt;" class="s8" d="m593.6 656.2c-3.5 96-11.9 168.7-16.5 263.5-4.6 94.8-0.8 175.9-3.1 240.2-2.3 64.2-116.2 216.4-116.2 216.4l-0.6-0.7c14-27.9 61.4-128.5 65.2-218.9 4.5-106.2 6.6-199.8 22.2-283.3 15.6-83.5 33.9-184 33.9-266 0-34.4-3.9-112.1-8-183.7 0 0 26.5 136.6 23.1 232.5z"/>
				<path id="&lt;Path&gt;" class="s8" d="m560.8 860l-11.2 40.4c0 0-86.5-94.7-128.9-144.2-42.4-49.6-47.2-126-47.2-126 14.1 51.4 39.5 105.8 79.8 142.8 42.5 39.1 84.1 70.3 107.5 87z"/>
				<path id="&lt;Path&gt;" class="s8" d="m581.2 696l-5 32.5c0 0-38.9-50.5-58-81.8-19.1-31.3-27.1-105.5-27.1-105.5 6.8 32.8 18.1 74.1 35 96.7 20.7 27.7 42.8 47.9 55.1 58.1z"/>
				<path id="&lt;Path&gt;" class="s8" d="m587.8 980.1c0 0 3.8 96.4 0 155.3-3.8 58.9-13.3 81.8-33.8 121.6-20.5 39.8-69.6 97.1-74.5 114.7-4.9 17.6 15 11.5 29.5 11.5 14.6 0 19.9 23 32.2 17.6 12.2-5.4 6.8-47.4 25.2-103.3 18.4-55.8 40.1-105.5 42.2-152.2 2.2-46.6-20.8-165.2-20.8-165.2z"/>
				<path id="&lt;Path&gt;" class="s3" d="m621.6 1150.7c0 0 31.2 90.2 38.9 129.3 7.6 39 8.2 81.5 4.4 103.1-3.8 21.6-22.8 20.9-36.5 18.5-13.8-2.3 3.9-17.8 10.7-63.6 6.8-45.8-17.5-187.3-17.5-187.3z"/>
				<path id="&lt;Path&gt;" class="s8" d="m615.3 1184.3c0 0-30 85.7-35.2 114.8-5.3 29-9.6 84-9.6 84 0 0 27.5-80.6 37.3-106.4 9.8-25.8 7.5-92.4 7.5-92.4z"/>
				<path id="&lt;Path&gt;" class="s3" d="m623.2 1235.6c0 0 0.1 39-15.4 75.7-15.4 36.7-15.9 71.8-15.9 71.8 0 0 21.7-5.8 32.9-42.6 11.2-36.8-1.6-104.9-1.6-104.9z"/>
			</g>
		</g>
	</g>
</svg>